<?xml version="1.0" standalone="no"?>
<!DOCTYPE svg PUBLIC "-//W3C//DTD SVG 1.1//EN" "http://www.w3.org/Graphics/SVG/1.1/DTD/svg11.dtd" >
<svg xmlns="http://www.w3.org/2000/svg">
<metadata>
This is a custom SVG webfont generated by Font Squirrel.
Copyright   : Copyright c 2010 by Peter Zharnov All rights reserved
Designer    : Peter Zharnov
Foundry     : Peter Zharnov
Foundry URL : httpwwwjovannyru
</metadata>
<defs>
<font id="ZhiznRegular" horiz-adv-x="819" >
<font-face units-per-em="2048" ascent="1536" descent="-512" />
<missing-glyph horiz-adv-x="500" />
<glyph unicode=" " />
<glyph unicode="!" horiz-adv-x="778" d="M225 1444q0 20 21.5 41.5t42.5 21.5q53 0 91 -85t53.5 -212t21.5 -219t6 -164q0 -59 -2 -167.5t-2 -155.5q0 -98 4 -142q-6 -25 -43 -24q-45 0 -51 31q-31 135 -35 331.5t-18.5 380t-69.5 332.5q-19 13 -19 31zM313 106q0 37 42 66t83 29q47 0 91 -36t44 -83 q0 -37 -33.5 -60.5t-97.5 -23.5q-43 0 -86 34.5t-43 73.5z" />
<glyph unicode="&#x22;" horiz-adv-x="1017" d="M123 1284q0 49 47 83t100 34q86 0 142.5 -65.5t56.5 -157.5q0 -117 -39 -228.5t-102 -111.5q-27 0 -54.5 19.5t-27.5 45.5q0 20 27.5 48t55 67t27.5 90q0 49 -28.5 82t-81.5 33q-8 0 -27.5 -2t-32.5 -2q-31 0 -47 18t-16 47zM537 1307q0 45 35.5 69.5t89.5 24.5 q104 0 168.5 -85t64.5 -196q0 -80 -57.5 -165t-137.5 -85q-25 0 -41 15.5t-16 34.5q0 14 26.5 40.5t54.5 68.5t28 91q0 72 -41 129q-57 -14 -103 -14q-37 0 -54 15.5t-17 56.5z" />
<glyph unicode="#" horiz-adv-x="1646" d="M102 997q0 37 39 37q12 0 31 -6q119 -51 326 -78l159 -18q111 242 121 481q12 37 51 37q51 0 66 -53q-12 -225 -125 -477q39 0 81 -8.5t103.5 -26t85.5 -23.5q100 250 117 453q8 41 60 41q25 0 44 -14.5t21 -36.5q-25 -217 -131 -469q199 -45 330 -56q27 -4 45 -22.5 t18 -36.5q0 -35 -55 -35q-199 16 -375 70q-43 -102 -86 -189q215 -47 395 -78q39 -12 39 -40q0 -20 -18.5 -39t-46.5 -19q-106 16 -414 86q-90 -184 -152 -358q-12 -25 -45 -25q-25 0 -45 13.5t-20 33.5q0 18 10 52t31.5 81.5t37 80t42 85t30.5 62.5l-282 69 q-43 -76 -172 -286q-14 -23 -37 -23t-42.5 19.5t-19.5 42t31 76t74 118t53 82.5q-190 43 -305 62q-45 2 -45 36q0 18 15.5 34t35.5 16q47 0 101.5 -10.5t132 -30t114.5 -27.5q57 100 92 170q-29 0 -90 10t-94 10q-188 27 -289 74q-43 14 -43 53zM637 655l281 -63l88 188 q-203 51 -277 56q-53 -113 -92 -181z" />
<glyph unicode="$" horiz-adv-x="1392" d="M61 291q0 27 28 49t58 22q16 0 37 -10q160 -145 400 -215q4 39 20.5 174t24.5 227.5t12 186.5q-295 170 -295 375q0 113 82 202t201 117q0 8 1 15.5t3 16.5t2 15q6 35 43 35q20 0 36.5 -13t18.5 -34q-2 -10 -2 -27q150 -4 252 -127q10 -12 10 -24q0 -25 -24.5 -43.5 t-55 -18.5t-49.5 21q-55 72 -141 82q0 -76 7 -242t9 -266q37 -18 114 -53t120 -55.5t103.5 -58.5t92 -71.5t56 -85t24.5 -108.5q0 -174 -149.5 -276.5t-343.5 -102.5q-25 0 -82 4l-4 -84q-2 -27 -29 -27q-25 0 -49.5 19.5t-24.5 44.5l4 63q-270 57 -493 236q-17 21 -17 37z M469 1118q0 -141 176 -258q0 74 -10 223.5t-10 227.5q-66 -20 -111 -72.5t-45 -120.5zM686 115q47 -8 113 -9q115 0 216 56.5t101 167.5q0 47 -26.5 92t-60.5 79t-92 71.5t-96 57t-98 50.5q-6 -94 -57 -565z" />
<glyph unicode="%" horiz-adv-x="1388" d="M102 1280q0 63 45 78q61 18 158 18q113 0 215.5 -23.5t181 -86t78.5 -154.5q0 -117 -93 -197.5t-224 -80.5q-127 0 -221.5 72.5t-94.5 197.5q0 90 48 90q45 0 45 -80q0 -72 77.5 -109.5t165.5 -37.5q55 0 123 34.5t68 88.5q0 68 -116 108.5t-208 40.5q-45 0 -118.5 -10 t-90.5 -10q-39 0 -39 61zM195 -111q0 12 6 27q313 834 944 1442q20 20 51 20q49 0 49 -35q0 -23 -22 -38q-621 -643 -916 -1389q-2 -25 -26.5 -40t-51.5 -15q-34 -1 -34 28zM711 256q0 143 131 246q-33 23 -33 67q0 61 49 62q150 -45 261.5 -147.5t111.5 -243.5 q0 -104 -87 -170t-200 -66q-96 0 -164.5 75t-68.5 177zM805 238q0 -49 44 -77t99 -28q57 0 118.5 28.5t61.5 82.5q0 66 -75.5 132t-155.5 101q8 -16 8 -43q0 -33 -50 -91t-50 -105z" />
<glyph unicode="&#x26;" horiz-adv-x="1396" d="M143 338q0 39 6.5 71.5t23.5 61.5t29.5 47.5t42 43t43 34.5t50.5 34.5t47 31.5q-170 203 -170 401q0 147 96.5 262t245.5 115q152 0 254 -111.5t102 -271.5q0 -133 -84 -225.5t-237 -186.5q154 -127 328 -196q8 14 41.5 69t49 79t45 64.5t58.5 71.5q12 23 31 23 q16 0 30.5 -17.5t14.5 -42.5q0 -31 -23 -59q-68 -78 -151 -225q106 -35 233 -47q45 0 45 -50q0 -31 -18.5 -58.5t-40.5 -27.5q-141 14 -291 64q-49 -76 -88 -117q-63 -88 -148 -145.5t-173 -57.5q-164 0 -278 114t-114 251zM270 354q0 -98 89.5 -175t193.5 -77 q139 0 295 230q-211 88 -379 246q-100 -31 -149.5 -93.5t-49.5 -130.5zM319 1100q0 -88 47.5 -183.5t108.5 -156.5l23 -25q12 8 77.5 47t89 57.5t66.5 57.5t60.5 78t17.5 86q0 98 -83 173t-187 75q-88 0 -154 -59.5t-66 -149.5z" />
<glyph unicode="'" horiz-adv-x="630" d="M123 1294q0 45 55 81t105 36q100 0 162.5 -92t62.5 -199q0 -82 -58.5 -167t-138.5 -85q-53 0 -53 45q0 29 23 41q86 57 86 166q0 72 -43 129q-53 -14 -101 -14q-100 0 -100 59z" />
<glyph unicode="(" horiz-adv-x="821" d="M123 561q0 285 133 531.5t367 418.5q25 23 53 23q20 0 34.5 -14.5t14.5 -36.5q0 -37 -37 -68q-193 -143 -306.5 -369.5t-113.5 -467.5q0 -254 128 -460t356 -315q29 -12 28 -34q0 -29 -32.5 -56.5t-67.5 -27.5q-18 0 -25 4q-250 121 -391 355t-141 517z" />
<glyph unicode=")" horiz-adv-x="821" d="M41 1450q0 29 32.5 56.5t67.5 27.5q18 0 27 -4q250 -121 390 -355.5t140 -517.5q0 -285 -133 -531.5t-366 -418.5q-25 -23 -52 -22q-23 0 -37 14t-14 37q0 37 37 67q195 143 308.5 369.5t113.5 468.5q0 256 -128 461t-357 313q-29 12 -29 35z" />
<glyph unicode="*" horiz-adv-x="1003" d="M184 1223q0 29 29 30l188 25q-45 31 -168 104q-14 8 -14 23q0 20 17.5 34.5t39.5 14.5q16 0 25 -8q47 -37 148 -105q-2 29 -2.5 86.5t2.5 88.5q8 20 31.5 36.5t45.5 16.5q29 0 29 -35q-6 -51 -6 -113q0 -10 1 -34.5t1 -36.5q43 41 129 106q20 14 36.5 14t28 -10t11.5 -26 q0 -25 -23 -41q-47 -31 -115 -95q113 10 209 11q25 0 39.5 -15.5t14.5 -33.5q0 -37 -41 -37q-78 0 -126 -1t-68 -1h-23l217 -172q8 -10 8 -27q0 -18 -17.5 -32.5t-39.5 -14.5q-16 0 -25 10q-98 92 -195 174q18 -119 39 -184q2 -6 2 -12q0 -18 -21.5 -35t-39.5 -17 q-23 0 -29 21q-29 88 -49 215q-78 -94 -137 -203q-16 -29 -53 -29t-37 27q0 16 8 23q68 129 152 227q-41 -8 -144 -43q-4 -2 -12 -2q-25 0 -45.5 25.5t-20.5 50.5z" />
<glyph unicode="+" horiz-adv-x="1134" d="M102 705q0 23 18.5 46t39.5 23q61 -4 94 -4q47 0 137 5t131 5q0 20 -7 117.5t-7 151.5q0 172 67 172q35 0 35 -37q0 -16 23 -406q37 -2 146.5 -15t168.5 -13q31 0 56 2q29 0 28 -27q0 -20 -15.5 -40.5t-33.5 -20.5q-8 0 -24.5 -1t-24.5 -1q-55 0 -160.5 9t-146.5 11 q-2 -16 -14.5 -120.5t-12.5 -160.5q0 -35 2 -53q0 -23 -25.5 -40t-50.5 -17q-35 0 -34 78q0 59 10 169.5t12 143.5q-68 0 -192.5 -4t-192.5 -4q-27 2 -27 31z" />
<glyph unicode="," horiz-adv-x="630" d="M123 121q0 45 56.5 81t103.5 36q100 0 162.5 -92.5t62.5 -198.5q0 -156 -141 -236q-37 -18 -56 -18q-20 0 -36.5 12t-16.5 33q0 31 23 43q86 57 86 166q0 74 -43 129q-53 -14 -101 -15q-100 1 -100 60z" />
<glyph unicode="-" horiz-adv-x="1019" d="M102 686q0 53 31 53q303 39 623 39q162 0 162 -59q0 -43 -41 -43q-537 -23 -740 -41q-35 6 -35 51z" />
<glyph unicode="." horiz-adv-x="509" d="M102 78q0 45 68 99t117 54q45 0 83 -42t38 -91q0 -80 -199 -80q-107 1 -107 60z" />
<glyph unicode="/" horiz-adv-x="935" d="M61 72q0 6 5 14q74 100 179 319.5t175 315.5q66 104 174 297.5t170 292.5q12 20 43 20q25 0 46 -13t21 -30q0 -4 -4 -12q-74 -111 -195.5 -329t-172.5 -300q-47 -78 -153.5 -295t-182.5 -319q-8 -12 -32.5 -12.5t-48.5 16.5t-24 35z" />
<glyph unicode="0" horiz-adv-x="1353" d="M143 651q0 147 39 294t136.5 281t238.5 187q0 6 4 14q33 53 82 54q141 -10 254 -88t179.5 -198t100 -254t33.5 -267q0 -274 -177 -486.5t-443 -214.5q-96 0 -175 44t-128 115t-83 163t-47.5 180t-13.5 176zM287 653q0 -92 16 -180t53 -175t111 -143.5t174 -62.5 q106 2 187 63.5t125 159t65.5 200.5t21.5 204q0 225 -89 404.5t-265 224.5q-8 -12 -45 -21.5t-57 -9.5q-84 -10 -146.5 -85t-93.5 -182.5t-44 -207t-13 -189.5z" />
<glyph unicode="1" horiz-adv-x="817" d="M82 1315q0 51 24 63q27 12 92.5 52t118 60.5t105.5 20.5q45 0 65.5 -23.5t20.5 -51.5q0 -59 -24.5 -186.5t-24.5 -194.5q0 -113 16 -350q0 -295 135 -652q2 -6 2 -16q0 -31 -26.5 -53.5t-57.5 -22.5q-43 0 -57 39q-131 358 -131 893q0 256 43 453q-23 -8 -121 -65.5 t-131 -57.5q-23 0 -36 28.5t-13 63.5z" />
<glyph unicode="2" horiz-adv-x="1044" d="M143 143q0 94 44 190.5t110 182.5l131 172q66 86 117 187.5t61 197.5q0 86 -45 167t-129 81q-35 0 -43 -41q-10 -23 -40 -44.5t-54 -21.5q-18 0 -40 38t-22 65q33 125 170 125q135 0 226.5 -102.5t91.5 -241.5q0 -117 -44 -225.5t-109.5 -192.5t-132 -164t-119 -172 t-62.5 -182q0 -70 82 -70q94 0 273 29t278 29q35 -23 35 -66q0 -29 -16.5 -51.5t-45.5 -22.5q-82 0 -252 -16.5t-260 -16.5q-104 0 -154.5 33t-50.5 133z" />
<glyph unicode="3" horiz-adv-x="1218" d="M123 279q0 39 19.5 66.5t56.5 27.5q31 0 57.5 -12.5t26.5 -30.5q0 -8 -8.5 -21.5t-8.5 -23.5q0 -82 146.5 -148.5t251.5 -66.5q150 0 223.5 80.5t73.5 207.5q0 168 -113 314.5t-275 146.5q-45 0 -90 -12q-66 35 -65 74q0 33 43 76.5t95 80.5t95 88.5t43 96.5 q0 49 -40 77.5t-93 28.5q-78 0 -164 -56t-118 -56q-43 0 -43 32q0 78 122.5 129.5t216.5 51.5q92 0 169 -52.5t77 -142.5q0 -117 -198 -285q197 -53 335 -206.5t138 -356.5q0 -178 -120 -296t-306 -118q-59 0 -146.5 18.5t-179.5 53.5t-156.5 97.5t-64.5 136.5z" />
<glyph unicode="4" horiz-adv-x="1091" d="M164 659q98 444 268 764q14 27 41 27q18 0 32.5 -15.5t14.5 -35.5q0 -10 -6 -23q-29 -51 -55.5 -113.5t-44 -108.5t-41 -128t-33.5 -118t-35.5 -135t-32.5 -126q35 -8 74 -8q55 0 142 21.5t133 21.5q2 23 8 103.5t6 123.5q0 80 -14 150q0 33 26.5 53.5t57.5 20.5 q49 0 49 -152q0 -57 -11.5 -159.5t-13.5 -139.5h152q47 0 47 -53q0 -23 -12.5 -42.5t-34.5 -21.5l-138 -6q-18 -217 -18 -287q0 -111 25 -211q0 -27 -20.5 -48t-45.5 -21q-27 0 -41 31q-29 113 -29 266q0 129 17 276q-53 0 -162 -16.5t-170 -16.5q-49 0 -94 7 q-16 2 -28.5 48.5t-12.5 71.5z" />
<glyph unicode="5" horiz-adv-x="1153" d="M123 1370q0 25 16.5 45.5t40.5 20.5q53 0 82 -2q14 14 32.5 14t33.5 -14q332 0 618 -62q33 -6 33 -51q0 -31 -17.5 -55.5t-46.5 -24.5q-303 61 -569 76q6 -258 60 -506q12 6 26 6q92 0 179 -15.5t177.5 -50t145.5 -107.5t55 -175q0 -225 -149.5 -356t-356.5 -131 q-225 0 -303 102q-10 8 -10 25q0 33 36 65.5t68 32.5q16 0 25 -10q78 -115 217 -115q133 0 226.5 118.5t93.5 264.5q0 92 -65.5 151.5t-154 81t-196.5 23.5q-10 -41 -64 -41q-57 0 -71 45q-10 68 -17.5 152t-8.5 140t-3 158.5t-4 147.5q-27 2 -84 2q-45 0 -45 45z" />
<glyph unicode="6" horiz-adv-x="1298" d="M205 639q0 109 28.5 235.5t85 251.5t156.5 207t225 82q55 0 123 -20q27 -14 27 -47q0 -25 -11.5 -44.5t-27.5 -19.5q-6 0 -10 2q-49 18 -92 19q-109 0 -204 -118t-142.5 -262.5t-47.5 -252.5q0 -74 23 -148q23 115 178.5 188.5t292.5 73.5q145 0 245.5 -113.5 t100.5 -269.5q0 -170 -126 -292.5t-304 -122.5q-154 0 -275.5 101t-182 248.5t-62.5 301.5zM399 387q0 -113 97.5 -187.5t224.5 -74.5q129 0 223 78t94 215q-14 123 -92 190.5t-194 67.5q-135 0 -244 -77t-109 -212z" />
<glyph unicode="7" horiz-adv-x="1173" d="M102 1380q0 57 48 58q57 0 198 11t215 11q244 0 344 -102q-94 -295 -151 -602q129 0 227 -33q27 -8 27 -39q0 -25 -19.5 -48.5t-42.5 -23.5q-104 33 -213 37q-27 -115 -33 -273.5t-13 -253.5t-40 -116q-41 -27 -76 -26q-51 0 -51 53q0 31 50.5 260t54.5 354q-20 0 -80 -4 t-94 -4q-84 0 -172 16q-33 6 -33 45q0 33 19.5 63t47.5 30q219 -43 334 -43q74 354 150 581q-76 8 -164 8q-78 0 -233.5 -11t-241.5 -11q-27 0 -42.5 19t-15.5 44z" />
<glyph unicode="8" horiz-adv-x="1394" d="M164 424q0 78 43 152.5t130 144.5t144.5 107.5t159.5 99.5q-203 137 -203 311q18 94 100.5 142.5t186.5 48.5q119 0 225.5 -71t106.5 -185q0 -39 -21.5 -78t-65.5 -74t-75 -55.5t-80 -51.5q76 -39 143.5 -87t132 -111.5t102.5 -144t38 -164.5q0 -125 -93.5 -224.5 t-220 -147.5t-253.5 -48q-186 0 -343 127t-157 309zM309 403q0 -125 98.5 -219t227.5 -94q156 0 294 93t138 247q0 129 -88 229.5t-248 204.5q-84 -49 -146.5 -91t-131 -102.5t-106.5 -129t-38 -138.5zM532 1186q0 -98 189 -211l98 61q94 102 94 178q0 53 -46 81t-113 28 q-84 0 -153 -39t-69 -98z" />
<glyph unicode="9" horiz-adv-x="1269" d="M123 362q0 111 98 216q16 29 51 28q18 0 35 -10t17 -25q0 -4 -9 -20q-43 -90 -43 -168q0 -123 133.5 -221.5t262.5 -98.5t190.5 130.5t61.5 310.5q0 78 -9 135q-20 133 -22 209q-84 -61 -203 -62q-154 0 -276.5 104.5t-122.5 262.5q0 129 120.5 213t264.5 84 q152 0 262 -84t110 -240q0 -47 -25.5 -140t-25.5 -146q0 -57 18.5 -173t18.5 -171q0 -119 -41 -234t-137 -202t-225 -87q-182 0 -343 117.5t-161 271.5zM385 1153q0 -102 99.5 -170t213.5 -68q139 0 193 89q0 29 3 73.5t3 63.5q0 96 -73.5 150.5t-180.5 54.5 q-102 0 -180 -46.5t-78 -146.5z" />
<glyph unicode=":" horiz-adv-x="593" d="M143 119q0 45 69 99t116 54q45 0 84 -42t39 -91q0 -80 -199 -80q-105 1 -109 60zM143 885q0 45 69 99t116 54q45 0 84 -42t39 -91q0 -80 -199 -80q-105 1 -109 60z" />
<glyph unicode=";" horiz-adv-x="679" d="M143 862q0 45 69 99.5t118 54.5q45 0 83 -43t38 -90q0 -80 -199 -80q-103 0 -109 59zM152 121q0 45 55 81t104 36q100 0 163 -92.5t63 -198.5q0 -82 -59.5 -168t-139.5 -86q-20 0 -35.5 12t-15.5 33q0 33 22 43q84 57 84 166q0 74 -41 129q-57 -14 -102 -15q-98 1 -98 60 z" />
<glyph unicode="&#x3c;" horiz-adv-x="1116" d="M143 727q0 66 74 102q84 59 180.5 111.5t228.5 117t197 99.5q8 8 17 8q18 0 34.5 -41t16.5 -67q0 -20 -17 -33q-63 -31 -194 -87t-221 -103.5t-183 -114.5q94 -96 288 -206t280 -177q20 -14 20 -47q0 -25 -8 -66t-20 -41q-8 0 -25 13q-49 35 -143.5 99t-151.5 104 t-139 99.5t-152 116.5l-21 22q-17 17 -26.5 27.5t-20 28t-14.5 35.5z" />
<glyph unicode="=" horiz-adv-x="1128" d="M164 838q0 43 22 43q57 0 182.5 5t194.5 5q51 0 367 24q35 0 35 -51q0 -57 -35 -57q-66 -4 -168.5 -6t-167.5 -8q-61 0 -194.5 -10.5t-196.5 -10.5q-39 9 -39 66zM178 473q0 31 14.5 61.5t30.5 30.5q49 -4 137 -4q291 0 562 19q41 0 41 -54q0 -27 -11.5 -48t-27.5 -21 q-328 -20 -721 -27q-25 4 -25 43z" />
<glyph unicode="&#x3e;" horiz-adv-x="1114" d="M225 367q0 23 17 32q68 33 196.5 87.5t223 103.5t180.5 115q-98 94 -294 218t-274 185q-23 14 -22 47q0 23 8 54.5t21 31.5q10 0 24 -10q66 -47 182.5 -128t216 -151.5t187.5 -142.5q4 -4 15.5 -14.5t16.5 -16.5t14 -17t15 -19.5t11.5 -20.5t7.5 -25q0 -66 -72 -102 q-84 -57 -180 -110.5t-229.5 -118t-196.5 -99.5q-10 -6 -17 -6q-18 0 -34.5 40t-16.5 67z" />
<glyph unicode="?" horiz-adv-x="1128" d="M164 1184q0 45 43 94q123 158 381 158q115 0 225.5 -81t110.5 -196q0 -88 -56.5 -205.5t-124 -214t-124 -203t-56.5 -174.5q-6 -25 -63 -24q-55 0 -56 68q0 70 54.5 170t119 187t119 194.5t54.5 189.5q0 88 -81 137t-175 49q-104 0 -172 -59.5t-84 -118.5 q-29 -37 -64 -37q-23 0 -37 18.5t-14 47.5zM395 106q0 37 42 65t83 30q47 0 91 -36t44 -83q0 -37 -33.5 -60.5t-97.5 -23.5q-43 0 -86 34.5t-43 73.5z" />
<glyph unicode="@" horiz-adv-x="1873" d="M164 881q0 268 190.5 446t479.5 178q133 0 281.5 -42t283.5 -119.5t223 -205.5t88 -282q0 -172 -121 -291t-297 -123q-129 14 -217 119q-70 -96 -190 -96q-92 0 -163 71.5t-71 178.5q8 125 100.5 208t204.5 83q61 0 140.5 -47.5t79.5 -106.5q0 -20 -23 -33 q0 -66 -20 -135q74 -104 208 -104q104 0 189.5 76.5t85.5 183.5q0 121 -85 225t-212 167.5t-263 100.5t-249 37q-227 0 -383 -128t-156 -355q0 -213 127 -436.5t340 -375t436 -151.5q233 0 420 137q18 12 35 13q23 0 35 -19.5t12 -46.5q0 -41 -26 -53q-242 -166 -469 -166 q-250 0 -487.5 163t-382 417t-144.5 512zM788 715q0 -68 31 -110t74 -42q59 0 93 92.5t34 167.5q0 25 18 35q-31 45 -77 45q-74 0 -123.5 -59t-49.5 -129z" />
<glyph unicode="A" horiz-adv-x="1122" d="M205 76q33 207 59 520q-55 12 -55 53q0 45 63 49q39 461 93 707q6 31 27.5 53.5t47.5 22.5q23 0 37 -17q119 -109 177.5 -282.5t111.5 -499.5q18 -2 31.5 -19.5t13.5 -35.5q0 -33 -33 -41q4 -39 10.5 -108.5t11.5 -101.5t16 -76t31.5 -72.5t53.5 -53.5q16 -14 17 -31 q0 -27 -30 -53.5t-59 -26.5q-16 0 -26 11q-39 35 -66.5 78t-42 106.5t-20.5 98t-13.5 118.5t-9.5 103q-39 -4 -110 -5q-12 0 -36 4.5t-34 4.5h-84q-39 -342 -68 -480q0 -27 -23.5 -46t-49.5 -19q-41 0 -41 39zM397 680q68 -8 160 -8q12 0 39 1t41 1q-41 240 -76 366.5 t-98 221.5q-13 -82 -66 -582z" />
<glyph unicode="B" horiz-adv-x="1230" d="M246 160q0 645 61 1143q0 53 92.5 83.5t157.5 30.5q125 0 203 -91t82 -222q-8 -152 -111 -254q133 -49 214 -176t81 -275q0 -195 -114.5 -337t-309.5 -142q-47 0 -124 16.5t-77 47.5q0 25 29 49t62 24q20 0 62 -12t67 -12q127 0 189 106.5t62 251.5q0 141 -81.5 249 t-212.5 116q-70 -27 -142 -27q-6 0 -18 2t-19 2q-2 -51 -8 -250.5t-6 -306.5q0 -31 -26.5 -51.5t-57.5 -20.5q-55 1 -55 56zM406 860q45 -6 75 -6q88 0 148.5 58.5t60.5 148.5q0 88 -42 155.5t-126 67.5q-49 0 -94 -22q-16 -171 -22 -402z" />
<glyph unicode="C" horiz-adv-x="1230" d="M164 674q0 139 24.5 265t80 246t164 191.5t259.5 71.5q74 0 162 -41t88 -109q0 -25 -12 -42t-29 -17q-10 0 -32.5 21.5t-60.5 42t-87 20.5q-442 0 -465 -690q18 -221 198.5 -357.5t415.5 -136.5q39 0 115 20.5t111 20.5q23 0 38 -21.5t15 -45.5q0 -39 -33 -52 q-113 -53 -239 -53q-279 0 -496 190.5t-217 475.5z" />
<glyph unicode="D" horiz-adv-x="1310" d="M205 1415q0 20 14 35.5t31 15.5q18 0 33 -22l24 -49q41 6 82 6q197 0 381 -108.5t301 -294t117 -390.5q0 -131 -48 -234.5t-124 -169t-187.5 -112.5t-217 -70.5t-236.5 -39.5q0 -23 -14.5 -37.5t-32.5 -14.5q-33 0 -42.5 40t-25.5 46q-45 6 -45 58q0 49 33 55 q0 166 -2 417t-2 367q0 45 5 141.5t5 149.5q0 109 -39 185q-10 10 -10 26zM332 1300q16 -80 24.5 -300t12.5 -546.5t4 -351.5q119 2 238.5 35t225 94.5t172 164t66.5 227.5q0 162 -113.5 318.5t-285.5 253.5t-344 105z" />
<glyph unicode="E" horiz-adv-x="1187" d="M184 1354q0 31 24.5 56.5t55.5 25.5q20 0 31 -9q98 -12 297 -18t301 -20q39 -8 39 -37t-32 -56.5t-69 -27.5q-10 0 -14 2q-66 16 -142.5 21t-177 6t-151.5 6q41 -283 41 -474q16 8 78 9q182 0 336 -35q63 -12 63 -62q0 -18 -13 -32.5t-34 -14.5q-43 0 -135 12.5 t-145 12.5q-74 0 -125 -12q-31 -6 -67 -206t-36 -372q55 6 177 23.5t218.5 26.5t182.5 9q100 0 186 -14q53 -10 53 -55q0 -23 -15 -40.5t-40 -17.5q-29 0 -92.5 10.5t-99.5 10.5q-92 0 -294 -45t-315 -45q-33 0 -52 20.5t-19 55.5q0 20 6 69t6 74q0 90 30.5 260t37.5 244 q0 217 -54 598q-41 2 -41 41z" />
<glyph unicode="F" horiz-adv-x="993" d="M184 1354q0 29 23.5 55.5t54.5 26.5q18 0 33 -9q98 -12 297 -18t301 -20q39 -8 39 -37q0 -31 -33 -57.5t-65 -26.5q-10 0 -17 2q-66 16 -142.5 21t-177 6t-151.5 6q41 -283 41 -474q16 8 78 9q399 0 399 -97q0 -18 -13 -32.5t-34 -14.5q-72 0 -211 7.5t-209 7.5 q-2 0 -7 3t-7 3q0 -80 -25.5 -250t-25.5 -260q0 -53 6 -109q0 -25 -14.5 -48t-44.5 -23q-66 31 -66 190q0 90 29.5 259t36.5 241q0 217 -54 598q-41 2 -41 41z" />
<glyph unicode="G" horiz-adv-x="1363" d="M143 748q0 160 69 308t200 245.5t293 97.5q78 0 163.5 -33t85.5 -98q0 -49 -61 -56q-14 0 -59.5 36t-98.5 36q-221 -20 -341 -171.5t-120 -391.5q0 -168 56.5 -308.5t182.5 -234.5t300 -94q104 0 174 43t70 141.5t-19 153.5h-188q-31 4 -50.5 23.5t-19.5 43.5q0 45 64 48 q193 12 336 12q102 0 102 -55q0 -25 -15.5 -48.5t-39.5 -23.5q-10 0 -35 2t-41 2q25 -66 25 -160q0 -291 -414 -291q-193 0 -337 115t-213 287t-69 371z" />
<glyph unicode="H" horiz-adv-x="1230" d="M266 426q0 113 17.5 338t17.5 340q0 47 -12.5 143t-12.5 146q0 25 17.5 41t38.5 16q35 0 45 -47q23 -147 22 -281q0 -88 -12 -252q219 -23 412 -28q10 164 10 291q0 43 -6 129t-6 129q0 23 24.5 38t55.5 15q53 0 59 -41q10 -96 10 -236q0 -119 -11 -357.5t-11 -358.5 q0 -270 41 -457q0 -31 -26 -49.5t-58 -18.5q-47 0 -54 37q-41 188 -41 459q0 106 9 323q-266 0 -416 27q-18 -203 -19 -336q0 -197 41 -346q4 -16 5 -27q0 -31 -17.5 -54t-40 -23t-29.5 34q-53 177 -53 406z" />
<glyph unicode="I" horiz-adv-x="745" d="M205 1417q0 57 45 68q147 16 170 16q43 0 125 -16q37 -6 37 -55q0 -25 -12.5 -43.5t-34.5 -18.5q-61 12 -123 12q0 -137 23.5 -369.5t23.5 -371.5q0 -57 -6.5 -208.5t-6.5 -215.5q0 -74 31 -154q25 0 51.5 -14t26.5 -37q0 -12 -10 -23.5t-25 -11.5q-59 -12 -186 -12 q-27 0 -45.5 15.5t-18.5 41.5q0 14 16.5 26.5t32.5 12.5q20 0 33 -2q-18 49 -18 121q0 63 8 227t8 236q0 127 -20.5 354.5t-22.5 378.5l-65 -6q-37 0 -37 49z" />
<glyph unicode="J" horiz-adv-x="1036" d="M82 424q0 31 51 31q72 0 72 -47q0 -117 80 -200t200 -83q61 0 104.5 41t64 107.5t29.5 127t9 119.5q0 80 -24.5 255t-24.5 276q0 160 16 249q-70 0 -137 -10q-41 0 -41 64q0 94 123 94q90 0 287 -35q18 0 30.5 -12t12.5 -31q0 -27 -17.5 -48.5t-44.5 -21.5q-20 16 -86 17 q-27 0 -34 -4q-18 -88 -19 -166q0 -115 42 -345.5t42 -352.5q0 -170 -107.5 -315.5t-269.5 -145.5q-150 0 -254 138t-104 298z" />
<glyph unicode="K" horiz-adv-x="1239" d="M205 432q0 133 21.5 398.5t21.5 396.5q0 100 -8 198q0 47 53 48q29 0 50.5 -16.5t21.5 -41.5q14 -113 14 -237q0 -135 -12 -271q86 41 178 123t199.5 193.5t166.5 165.5q16 8 37 8q47 0 47 -51q0 -37 -28 -58q-59 -41 -121 -99.5t-131.5 -131t-110.5 -111.5 q49 -57 94 -117.5t90.5 -136.5t76 -128t77.5 -147t67.5 -136t73 -153t66.5 -140q8 -20 8 -37q0 -25 -23.5 -48.5t-50.5 -23.5q-25 0 -32 27q-27 55 -88.5 190t-99.5 212t-97 187.5t-122.5 201.5t-135.5 171q-66 -51 -150 -86q-16 -301 -16 -338q0 -201 39 -381 q0 -43 -62 -43q-29 0 -52 13.5t-27 38.5q-35 157 -35 360z" />
<glyph unicode="L" horiz-adv-x="1126" d="M164 1391q0 31 23.5 52t48.5 21q33 0 34 -28q20 -61 32.5 -124t20 -137.5t9.5 -122.5t4 -140.5t4 -129.5q6 -131 9 -369.5t7 -334.5q104 0 349 -6t376 -6q45 0 45 -33q0 -20 -21.5 -40t-45.5 -20q-205 0 -772 23q-18 0 -33.5 9t-15.5 26q0 420 -13 714q-4 53 -6 158 t-5 170.5t-16.5 154.5t-33.5 163z" />
<glyph unicode="M" horiz-adv-x="1947" d="M164 133q0 164 115.5 530.5t115.5 532.5q0 82 -18 152q0 29 26.5 47t59.5 18q53 0 53 -53l-4 -25q80 -68 152.5 -166t117.5 -176t119 -219q147 -326 254 -495q6 53 22.5 242.5t30 274.5t57.5 224t113 248q47 27 86 26q86 0 135.5 -153.5t64.5 -351t54 -421t107 -325.5 q0 -27 -22.5 -42t-53.5 -15q-66 0 -80 51q-106 365 -231 1104q-70 -117 -107 -396q-66 -535 -76 -602q-20 -76 -98 -75q-47 0 -113.5 90t-114.5 190.5t-102.5 224t-64.5 142.5q-12 23 -41 76t-42 78.5t-40 71.5t-46.5 76t-45 66.5t-51.5 67.5q0 -281 -60 -498 q-8 -31 -46 -152.5t-53 -200.5t-15 -157q0 -20 7 -62t7 -65q0 -33 -34 -58.5t-69 -25.5q-33 0 -40 27q-29 86 -29 174z" />
<glyph unicode="N" horiz-adv-x="1175" d="M225 59q0 141 9.5 420t9.5 420q0 211 -19 416q0 35 20.5 61.5t55.5 26.5t35 -31l6 -78q76 -84 145.5 -196.5t111.5 -198.5t105.5 -225t98.5 -211q-31 733 -31 883q0 45 59 45q31 0 54.5 -16.5t23.5 -43.5q0 -219 20.5 -657t20.5 -658q0 -45 -57 -45q-31 0 -55.5 16.5 t-24.5 41.5q0 92 -2 139q-78 125 -217 433t-242 454q0 -23 1 -64t1 -63q0 -141 -9 -423t-9 -419q0 -31 -23.5 -53.5t-48.5 -22.5q-39 0 -39 49z" />
<glyph unicode="O" horiz-adv-x="1552" d="M143 653q0 162 70 332t212 295t320 125q51 0 95 -8q12 4 73 4q236 -41 366 -244t130 -459q0 -291 -163 -490.5t-451 -199.5q-283 0 -467.5 178t-184.5 467zM254 702q0 -236 175 -406.5t417 -170.5q143 0 251.5 84t160 212t51.5 275q0 205 -101.5 368t-289.5 206 q-16 -16 -37 -17q-25 0 -76 14.5t-80 14.5q-199 0 -335 -184.5t-136 -395.5z" />
<glyph unicode="P" horiz-adv-x="1003" d="M225 37q0 215 34 658.5t34 672.5q0 25 24.5 43.5t51 18.5t28.5 -19q221 0 352.5 -97t131.5 -317q0 -475 -514 -495q0 -39 -20.5 -170t-20.5 -193q0 -25 4 -57v-10q0 -25 -20.5 -44.5t-45.5 -19.5q-27 0 -39 29zM375 594q16 -2 45 -2q160 0 256 118.5t96 286.5 q0 137 -74.5 232.5t-210.5 95.5q-41 0 -88 -10q-8 -524 -24 -721z" />
<glyph unicode="Q" horiz-adv-x="1640" d="M143 782q0 111 20.5 206t66.5 180t127 143.5t194 83.5q16 49 201 49q133 0 246.5 -61.5t189.5 -164t123 -229.5t57 -262q0 -248 -61 -397q256 -141 391 -221q25 -14 24 -50q0 -43 -30 -43q-12 0 -25 7q-371 199 -405 219q-139 -231 -457 -232q-295 0 -472.5 224 t-189.5 548zM246 778q0 -166 64.5 -315.5t196.5 -249.5t306 -100q240 0 367 174q-166 90 -265 153q-25 14 -24 49q0 43 35 43q2 0 22 -8q51 -31 146.5 -83t132.5 -72q51 104 51 264q0 174 -55.5 327.5t-182.5 262t-305 110.5q-4 -35 -33 -35q-152 0 -258 -74.5t-152 -189.5 t-46 -256z" />
<glyph unicode="R" horiz-adv-x="1204" d="M225 1311v51q0 39 51 39q18 0 59.5 7t65.5 7q166 0 321 -129t155 -297q0 -250 -396 -311q430 -266 713 -602q10 -16 10 -35q0 -27 -15 -48.5t-36 -21.5q-16 0 -35 21q-274 344 -694 581q29 -209 29 -352q0 -141 -21 -244q-6 -41 -61 -40q-25 0 -42.5 12t-17.5 33 q23 147 23 264q0 170 -54.5 524.5t-54.5 540.5zM344 1286q0 -197 47 -502q37 0 97.5 10.5t129 31t116.5 59.5t48 88q0 117 -129 217t-254 100q-37 0 -55 -4z" />
<glyph unicode="S" horiz-adv-x="1310" d="M0 291q0 27 27.5 49t58.5 22q16 0 37 -10q125 -111 286.5 -178.5t325.5 -67.5q115 0 217.5 56.5t102.5 167.5q0 90 -57.5 160.5t-142.5 112.5t-185.5 90t-185.5 94.5t-142 127t-57 185.5q0 137 113.5 233.5t256.5 96.5q92 0 183.5 -47.5t91.5 -106.5q0 -25 -24.5 -43.5 t-53.5 -18.5q-33 0 -49 21q-68 88 -172 88q-88 0 -155.5 -58.5t-67.5 -144.5q0 -92 57 -163.5t144 -113.5t188.5 -90t188.5 -91.5t144.5 -116t57.5 -166.5q0 -180 -136.5 -279.5t-355.5 -99.5q-174 0 -354 70.5t-326 183.5q-16 17 -16 37z" />
<glyph unicode="T" horiz-adv-x="1245" d="M41 1298q0 49 65 76q92 20 224 21q102 0 306 -21.5t306 -21.5q117 0 232 22q31 0 30 -31q0 -25 -16.5 -51t-36.5 -30q-92 -18 -213 -19q-100 0 -305 21q-4 -45 -4 -68q0 -135 22.5 -405.5t22.5 -423.5q0 -188 -25 -338q-10 -47 -71 -47q-55 0 -56 38q25 121 25 289 q0 137 -21.5 438.5t-21.5 446.5q0 55 6 82q-123 8 -186 8q-127 0 -230 -22q-23 0 -38 10t-15 26z" />
<glyph unicode="U" horiz-adv-x="1474" d="M143 1350q0 29 21.5 45t50.5 16q49 0 55 -41q33 -88 47.5 -189.5t23.5 -235.5t19 -210q8 -70 17.5 -121t27 -122.5t38 -124t55 -108.5t76.5 -91t102.5 -58.5t132.5 -23.5q174 0 282.5 75t108.5 242q0 49 -10 112t-21.5 103.5t-31 109.5t-25.5 91q-10 39 -35.5 129 t-40 142.5t-27 130t-12.5 141.5q0 47 7 92q8 39 73.5 39t65.5 -45q-8 -55 -8 -102q0 -129 65 -314q10 -39 41 -147.5t46.5 -167t29.5 -149.5t14 -169q0 -207 -150.5 -314.5t-373.5 -107.5q-119 0 -212 40t-153.5 102.5t-104.5 158t-66.5 189.5t-39.5 215q-8 68 -33.5 213 t-40 258t-14.5 197z" />
<glyph unicode="V" horiz-adv-x="1411" d="M82 1290q0 29 22.5 57.5t45.5 28.5q18 0 26 -16q92 -109 171 -275.5t129 -314t128 -321t166 -287.5q47 199 126 421t181.5 485t155.5 419q18 41 47 41q18 0 33.5 -16.5t15.5 -41.5q0 -16 -10 -40q-100 -203 -254 -700t-283 -724q-20 -10 -41 -10q-18 0 -28 10 q-125 158 -223.5 387.5t-194.5 470t-203 398.5q-10 10 -10 28z" />
<glyph unicode="W" horiz-adv-x="1665" d="M82 1380q0 39 47 39q61 0 88 -47q381 -969 457 -1149q74 240 166 377q-43 63 -113 148q-16 16 -16 43q0 33 17 60.5t40 27.5q14 0 31 -17q70 -74 147 -198q23 -6 38 -22.5t15 -37.5q0 -10 -6 -18q158 -268 215 -342q47 184 68 575q4 78 35.5 253t31.5 261q0 10 -2 30.5 t-2 35.5q0 35 20.5 63.5t45.5 28.5q55 0 55 -137q0 -66 -10 -154t-28.5 -204.5t-24.5 -161.5q-2 -20 -6.5 -123t-11.5 -207.5t-24.5 -214t-54 -179t-90.5 -69.5q-12 0 -20 8q-33 35 -61.5 73t-59.5 86t-49.5 78.5t-53 93t-46.5 85.5q-66 -131 -152 -420q-2 -4 -4 -13 t-4 -15.5t-5 -14.5t-6.5 -14t-9.5 -11.5t-13 -8.5t-15 -3q-27 0 -53.5 16.5t-32.5 36.5q-29 70 -135.5 322t-151.5 363.5t-121 304t-131 350.5q-4 20 -4 22z" />
<glyph unicode="X" horiz-adv-x="1253" d="M61 1343.5q0 28.5 19.5 49t54.5 20.5q135 -51 225 -227q86 -137 215 -291q2 -4 13 -14q86 389 123 487q10 27 57 27q78 0 78 -58q-20 -72 -87 -261t-87 -285q205 -209 512 -707q8 -18 8 -37q0 -47 -59 -47q-31 0 -57.5 13.5t-35.5 33.5q-45 70 -117.5 203t-139 236.5 t-140.5 181.5q-82 -383 -197 -731q-8 -29 -53 -29q-37 0 -68.5 17.5t-31.5 39.5q0 10 2 15q25 74 83 236.5t94 279t65 243.5q-78 92 -157 202t-142.5 185.5t-157.5 159.5q-19 29 -19 57.5z" />
<glyph unicode="Y" horiz-adv-x="1204" d="M61 1352q0 29 25 51t53 22q35 0 51 -26q113 -295 443 -549q244 330 424 524q18 18 43 19q18 0 30.5 -14.5t12.5 -32.5q0 -31 -31 -56q-121 -139 -397 -499q12 -12 12 -29q0 -20 -18.5 -42t-40.5 -28q6 -29 37.5 -155.5t43 -179t27 -147.5t19.5 -171q0 -25 -20.5 -39 t-49.5 -14t-49.5 14t-20.5 39q-4 82 -21.5 183.5t-29.5 161.5t-44 188t-40 165q0 16 6 25q-322 236 -460 569q-5 13 -5 21z" />
<glyph unicode="Z" horiz-adv-x="1216" d="M82 1348q0 43 33 49q158 53 374 53q168 0 443 -43q39 0 39 -45q0 -47 -47 -62q-121 -158 -219.5 -365.5t-194.5 -438t-184 -381.5q59 0 194 7t217 7q172 0 357 -25q18 0 29.5 -16t11.5 -39q0 -53 -41 -53q-176 27 -406 27q-158 0 -473 -17q-18 0 -28.5 18.5t-10.5 41.5 q0 10 4 26q141 287 226.5 483.5t105.5 259t81.5 173t199.5 313.5q-209 25 -318 25q-61 0 -180 -24t-174 -24q-39 1 -39 50z" />
<glyph unicode="[" horiz-adv-x="733" d="M143 399q0 174 6.5 313.5t29 291t59 254t102.5 171t156 72.5q45 0 137 -31.5t92 -76.5q0 -23 -38 -41.5t-64 -18.5q-33 0 -92.5 22.5t-84.5 22.5q-164 0 -163 -1036q0 -123 13 -201t55 -149.5t131 -106.5t229 -39q63 0 63 -34q0 -14 -15.5 -28.5t-39.5 -21.5 q-86 -14 -168 -14q-408 0 -408 651z" />
<glyph unicode="\" horiz-adv-x="677" d="M0 1350q0 18 21.5 30.5t46.5 12.5q31 0 41 -21q113 -184 205 -399t197 -501t165 -429q2 -4 2 -12q0 -33 -66 -33q-57 0 -71 29q-211 637 -539 1310q-2 7 -2 13z" />
<glyph unicode="]" horiz-adv-x="733" d="M-41 1460q0 37 57 47q94 16 166 17q408 0 408 -652q0 -174 -6 -313t-29 -290.5t-59.5 -254t-102 -171t-153.5 -72.5q-49 0 -140.5 30.5t-91.5 77.5q0 20 39 39t64 19q35 0 94 -23t84 -23q162 0 162 1037q0 98 -7.5 163.5t-33 132t-70.5 106.5t-125 65.5t-192 27.5 q-64 0 -64 37z" />
<glyph unicode="^" horiz-adv-x="1034" d="M82 948q0 12 12 25q57 80 146.5 212t175.5 245q4 4 20.5 22t27.5 30.5t29.5 23t34.5 10.5q59 0 103 -70q186 -252 311 -471q8 -8 10 -17q0 -20 -22.5 -35.5t-44.5 -17.5q-43 0 -54 17q-231 358 -311 440q-33 -47 -145.5 -199.5t-157.5 -220.5q-16 -23 -67 -22 q-68 -1 -68 28z" />
<glyph unicode="_" horiz-adv-x="827" d="M0 -227q0 51 31 51q41 -2 172 -17.5t200 -15.5q72 0 203 15.5t178 17.5q43 0 43 -53q0 -18 -8 -31.5t-20 -13.5q-242 -31 -434 -31q-143 0 -328 20q-37 11 -37 58z" />
<glyph unicode="`" horiz-adv-x="516" d="M82 1454q0 59 88 59q20 0 47 -24.5t58.5 -71.5t55 -85t56.5 -95t43 -74q4 -8 4 -10q0 -27 -59 -27q-37 0 -58 21q-18 23 -62 74t-66.5 78.5t-51 64.5t-42 58.5t-13.5 31.5z" />
<glyph unicode="a" horiz-adv-x="1290" d="M205 592q0 33 20.5 60.5t53.5 27.5l79 -18l4 30q23 166 34.5 241t35 184.5t53.5 191.5l-20 43q0 33 24.5 55.5t55.5 22.5q37 0 55 -25q29 -70 155 -357.5t187 -445.5q8 -2 23 -2q39 -10 39 -61q0 -39 -17 -58q88 -221 139 -432q0 -29 -26.5 -51.5t-55.5 -22.5 q-35 0 -43 31q-57 215 -155 471q-74 8 -209 20.5t-188 18.5q-6 -45 -43 -186.5t-37 -194.5q0 -8 4 -25.5t4 -27.5q0 -29 -24.5 -53.5t-49.5 -24.5q-47 0 -47 90q0 59 14.5 132t38 164t33.5 136l-104 19q-33 6 -33 47zM465 647q33 -4 328 -33q-102 254 -238 543 q-20 -76 -35.5 -161t-31 -191.5t-23.5 -157.5z" />
<glyph unicode="b" horiz-adv-x="1347" d="M205 1311q0 41 95 84t146 43q121 0 204 -89t83 -216q0 -158 -127 -314q109 -4 247 -68.5t244.5 -176t106.5 -222.5q0 -342 -747 -360q0 -23 -21.5 -39t-46.5 -16q-45 0 -45 45q0 12 2 18q-129 27 -129 109q0 49 35 49q18 0 59 -18.5t51 -20.5q-8 119 -20 233.5t-31.5 255 t-31 215t-39 254t-35.5 234.5zM336 1282q12 -135 74.5 -539.5t68.5 -631.5q80 0 165 10t187.5 35.5t168 85t65.5 143.5q0 72 -68.5 132.5t-150.5 91t-192.5 68.5t-151.5 58q-39 12 -39 66q0 39 45 93t91 115.5t46 112.5q0 76 -60.5 133.5t-138.5 57.5q-65 0 -110 -31z" />
<glyph unicode="c" horiz-adv-x="1148" d="M123 674q0 139 24.5 265t80 246t164 191.5t259.5 71.5q74 0 162 -41t88 -109q0 -25 -12 -42t-29 -17q-10 0 -32.5 21.5t-60.5 42t-87 20.5q-442 0 -465 -690q18 -221 198.5 -357.5t415.5 -136.5q39 0 115 20.5t111 20.5q23 0 38 -21.5t15 -45.5q0 -39 -33 -52 q-113 -53 -239 -53q-279 0 -496 190.5t-217 475.5z" />
<glyph unicode="d" horiz-adv-x="1331" d="M225 1415q0 20 14.5 35.5t30.5 15.5q18 0 33 -22l25 -49q41 6 82 6q197 0 381 -108.5t300.5 -294t116.5 -390.5q0 -131 -48 -234.5t-123.5 -169t-187.5 -112.5t-217.5 -70.5t-236.5 -39.5q0 -23 -14 -37.5t-33 -14.5q-33 0 -42 40t-25 46q-45 6 -45 58q0 49 32 55 q0 166 -2 417t-2 367q0 45 5 141.5t5 149.5q0 109 -38 185q-11 10 -11 26zM352 1300q16 -80 24.5 -300t12.5 -546.5t4 -351.5q119 2 239 35t225.5 94.5t172 164t66.5 227.5q0 162 -114 318.5t-286 253.5t-344 105z" />
<glyph unicode="e" horiz-adv-x="1243" d="M225 98q0 18 2 29q39 266 45.5 728t14.5 593q2 27 27.5 42t56.5 15q43 0 47 -32q111 -6 327 -63.5t326 -63.5q37 0 37 -35q0 -27 -23.5 -55.5t-52.5 -28.5q-111 6 -316.5 61t-305.5 66q-6 -141 -9.5 -406.5t-7.5 -384.5q27 4 130.5 19.5t148.5 21.5t123.5 13.5t144.5 7.5 q39 0 60.5 -18.5t21.5 -43.5q0 -18 -12.5 -30.5t-30.5 -12.5q-246 0 -594 -65q-10 -205 -31 -340l385 -37q59 0 110.5 4t84.5 9t56.5 10t35.5 10l12 4q37 0 59.5 -26t22.5 -56q0 -41 -39 -41q-63 0 -238 -10.5t-265 -10.5q-353 0 -353 127z" />
<glyph unicode="f" horiz-adv-x="1075" d="M225 1354q0 29 23.5 55.5t54.5 26.5q18 0 33 -9q98 -12 296.5 -18t301.5 -20q39 -8 39 -37q0 -31 -33 -57.5t-66 -26.5q-10 0 -16 2q-66 16 -142.5 21t-177 6t-151.5 6q41 -283 41 -474q16 8 78 9q399 0 399 -97q0 -18 -13 -32.5t-34 -14.5q-72 0 -211 7.5t-209 7.5 q-2 0 -7 3t-7 3q0 -80 -25.5 -250t-25.5 -260q0 -53 6 -109q0 -25 -14.5 -48t-45.5 -23q-66 31 -65 190q0 90 29.5 259t35.5 241q0 217 -53 598q-41 2 -41 41z" />
<glyph unicode="g" horiz-adv-x="1384" d="M143 748q0 160 69 308t200 245.5t293 97.5q78 0 163.5 -33t85.5 -98q0 -49 -61 -56q-14 0 -59.5 36t-98.5 36q-221 -20 -341 -171.5t-120 -391.5q0 -168 56.5 -308.5t182.5 -234.5t300 -94q104 0 174 43t70 141.5t-19 153.5h-188q-31 4 -50.5 23.5t-19.5 43.5q0 45 64 48 q193 12 336 12q102 0 102 -55q0 -25 -15.5 -48.5t-39.5 -23.5q-10 0 -35 2t-41 2q25 -66 25 -160q0 -291 -414 -291q-193 0 -337 115t-213 287t-69 371z" />
<glyph unicode="h" horiz-adv-x="1482" d="M225 1403q0 27 23.5 46t50.5 19q43 0 43 -49q0 -147 27.5 -416.5t33.5 -365.5q47 10 113 10q51 0 154.5 -9t152.5 -9q100 0 176 24q-4 45 -13 169t-15 187.5t-21.5 161t-36.5 175.5q0 2 -1 6t-1 6q0 27 21.5 42t48.5 15q70 0 82 -55q37 -158 54.5 -422t52 -496.5 t124.5 -412.5q4 -12 4 -21q0 -25 -22.5 -40t-52.5 -15q-45 0 -62 31q-109 211 -149 553q-80 -18 -181 -19q-53 0 -156.5 7t-152.5 7q-37 0 -114 -8q0 -291 -37 -467q0 -29 -23.5 -49t-52.5 -20q-49 0 -55 55q35 244 34 485q-18 18 -18 41q0 20 16 37q-2 45 -24.5 342 t-22.5 455z" />
<glyph unicode="i" horiz-adv-x="704" d="M164 1417q0 57 45 68q147 16 170 16q43 0 125 -16q37 -6 37 -55q0 -25 -12.5 -43.5t-34.5 -18.5q-61 12 -123 12q0 -137 23.5 -369.5t23.5 -371.5q0 -57 -6 -208.5t-6 -215.5q0 -74 30 -154q25 0 51.5 -14t26.5 -37q0 -12 -10 -23.5t-25 -11.5q-59 -12 -186 -12 q-27 0 -45.5 15.5t-18.5 41.5q0 14 16.5 26.5t33.5 12.5q20 0 32 -2q-18 49 -18 121q0 63 8 227t8 236q0 127 -20.5 354.5t-22.5 378.5l-65 -6q-37 0 -37 49z" />
<glyph unicode="j" horiz-adv-x="1056" d="M41 424q0 31 51 31q70 0 70 -47q0 -117 81 -200t201 -83q61 0 104.5 41t64 107.5t29.5 127t9 119.5q0 80 -24.5 255t-24.5 276q0 160 16 249q-70 0 -137 -10q-41 0 -41 64q0 94 123 94q90 0 287 -35q18 0 30.5 -12t12.5 -31q0 -27 -17.5 -48.5t-44.5 -21.5q-20 16 -86 17 q-27 0 -34 -4q-18 -88 -19 -166q0 -115 42 -345.5t42 -352.5q0 -170 -107.5 -315.5t-269.5 -145.5q-150 0 -254 138t-104 298z" />
<glyph unicode="k" horiz-adv-x="1253" d="M205 606q0 33 37 49q-10 121 -17.5 353.5t-17.5 341.5q0 25 26.5 44t57.5 19q37 0 43 -33q18 -92 25.5 -203.5t12.5 -281.5t15 -305q264 262 625 790q27 47 55 47q23 0 43 -27.5t20 -53.5q0 -43 -34 -89q-137 -182 -204 -268t-186.5 -227t-230.5 -252q70 -45 233.5 -131 t256.5 -152q35 -16 34 -65q0 -35 -17 -63.5t-42 -28.5q-16 0 -29 12q-297 233 -514 350q6 -375 6 -383q0 -23 -27.5 -38t-56.5 -15q-41 0 -40 31q0 154 -31 514q-35 47 -43 65z" />
<glyph unicode="l" horiz-adv-x="1126" d="M164 1391q0 31 23.5 52t48.5 21q33 0 34 -28q20 -61 32.5 -124t20 -137.5t9.5 -122.5t4 -140.5t4 -129.5q6 -131 9 -369.5t7 -334.5q104 0 349 -6t376 -6q45 0 45 -33q0 -20 -21.5 -40t-45.5 -20q-205 0 -772 23q-18 0 -33.5 9t-15.5 26q0 420 -13 714q-4 53 -6 158 t-5 170.5t-16.5 154.5t-33.5 163z" />
<glyph unicode="m" horiz-adv-x="1560" d="M184 229q0 272 33 527q47 346 123 592q0 33 29.5 66.5t60.5 33.5q43 0 43 -43q74 -145 112 -340t69.5 -399.5t86.5 -346.5q41 135 106.5 468t129.5 507q-2 6 -2 17q0 35 27.5 72.5t58.5 37.5q47 0 86 -195.5t64.5 -432t71.5 -443.5t103 -225q10 -10 11 -23q0 -25 -30 -44 t-62 -19q-29 0 -43 14q-66 117 -104 279t-72.5 367.5t-75.5 344.5q-14 -53 -81 -377.5t-130 -482.5q-33 -82 -76 -82q-31 0 -43 35q-96 182 -160.5 547t-103.5 481q-45 -209 -74 -424q-33 -250 -33 -479q0 -33 4 -96.5t4 -93.5q0 -25 -28.5 -47.5t-57.5 -22.5q-37 0 -43 39 q-4 63 -4 188z" />
<glyph unicode="n" horiz-adv-x="1216" d="M246 59q0 137 7 411.5t7 416.5q0 227 -14 428q0 31 17.5 52.5t39.5 21.5q51 0 59 -95q76 -84 146 -196.5t110.5 -197.5t105 -227.5t97.5 -209.5q-2 88 -11 275.5t-13 331.5t-4 276q0 45 59 45q31 0 54.5 -16.5t23.5 -43.5q0 -219 20.5 -657t20.5 -658q0 -45 -60 -45 q-29 0 -53 16.5t-24 41.5q0 92 -3 139q-78 123 -217 431t-243 456q0 -156 -7.5 -477.5t-7.5 -491.5q0 -31 -23.5 -53.5t-49.5 -22.5q-37 0 -37 49z" />
<glyph unicode="o" horiz-adv-x="1173" d="M164 727q0 100 23.5 216t67.5 226.5t120 183t168 72.5q41 0 71 -43h15q106 -4 186 -93t120 -224t57.5 -259t17.5 -235q0 -569 -398 -569q-139 0 -243.5 106.5t-154.5 269.5t-50 349zM295 741q0 -78 13.5 -172t43 -200.5t90 -184.5t140.5 -92q297 47 297 490 q0 123 -7.5 209t-31 190t-78.5 180t-141 119q-6 0 -20.5 -4t-25.5 -4q-23 0 -47 20q-233 -125 -233 -551z" />
<glyph unicode="p" horiz-adv-x="1153" d="M184 1436q0 41 49 41q72 0 107 -4q14 37 43 36q35 0 49 -45q223 -31 390 -183.5t167 -377.5q0 -125 -85 -197.5t-226 -72.5q-27 0 -89.5 2t-96.5 2q-45 0 -91 -6q-10 -137 -10 -242q0 -186 31 -356q4 -16 4 -23q0 -41 -45 -41q-49 0 -57 54q-29 143 -29 313q0 102 16 319 q-16 12 -16 31q0 16 20 29q35 352 35 495q0 94 -4 142q-8 0 -35.5 8t-50.5 8q-33 0 -54.5 20.5t-21.5 47.5zM412 735q47 6 94 6q25 0 81 -2t89 -2q92 0 136 46t44 122q0 168 -117.5 293t-296.5 156q2 -37 2 -109q1 -121 -32 -510z" />
<glyph unicode="q" horiz-adv-x="1585" d="M143 782q0 111 20.5 206t66.5 180t127 143.5t194 83.5q6 25 31 28q74 16 155 17q289 0 456 -223.5t167 -540.5q0 -174 -53 -346q168 -94 213 -123q25 -14 24 -64q0 -59 -35 -59q-10 0 -20 6q-68 37 -118 70t-118 69q-59 -102 -187 -164.5t-257 -62.5q-266 0 -466 238.5 t-200 541.5zM270 831q0 -172 71 -342t199 -284.5t273 -114.5q190 0 367 197q-166 90 -265 153q-16 10 -16 33q0 25 17.5 47.5t39.5 22.5q10 0 23 -6q43 -27 121 -83.5t127 -84.5q47 119 47 262q0 172 -60.5 328.5t-187.5 265t-291 108.5q-4 -35 -33 -35q-219 -8 -325.5 -138 t-106.5 -329z" />
<glyph unicode="r" horiz-adv-x="1239" d="M205 1264q0 137 55 137q14 0 25 -2q41 16 98 16q143 0 283.5 -101.5t179.5 -232.5q16 -59 16 -96q0 -240 -397 -307q106 -12 235 -82t244 -189.5t158 -248.5q14 -37 14 -74q0 -84 -98 -90q-43 47 -57 117q-35 137 -208 293.5t-347 168.5q31 -199 30 -352q0 -127 -20 -244 q-6 -41 -62 -40q-25 0 -43 12t-18 33q20 111 20 249q0 170 -54 516.5t-54 516.5zM328 1286q0 -197 47 -502q47 -6 90 -6q135 0 203.5 58.5t68.5 146.5q0 113 -99 210t-245 97q-42 0 -65 -4z" />
<glyph unicode="s" horiz-adv-x="1331" d="M0 291q0 27 27.5 49t58.5 22q16 0 37 -10q125 -111 286.5 -178.5t325.5 -67.5q115 0 217.5 56.5t102.5 167.5q0 90 -57.5 160.5t-142.5 112.5t-185.5 90t-185.5 94.5t-142 127t-57 185.5q0 137 113.5 233.5t256.5 96.5q92 0 183.5 -47.5t91.5 -106.5q0 -25 -24.5 -43.5 t-53.5 -18.5q-33 0 -49 21q-68 88 -172 88q-88 0 -155.5 -58.5t-67.5 -144.5q0 -92 57 -163.5t144 -113.5t188.5 -90t188.5 -91.5t144.5 -116t57.5 -166.5q0 -180 -136.5 -279.5t-355.5 -99.5q-174 0 -354 70.5t-326 183.5q-16 17 -16 37z" />
<glyph unicode="t" horiz-adv-x="1206" d="M41 1294q0 29 19.5 57.5t43.5 28.5h160q164 0 254 -4v92q0 27 24.5 43.5t55.5 16.5q45 0 45 -37q-2 -41 -2 -119q111 -4 170 -4q53 0 157.5 13.5t155.5 13.5q41 0 41 -45q0 -23 -14 -44.5t-39 -25.5q-156 -31 -352 -31q-20 0 -59 2t-58 2q6 -121 38 -409.5t32 -444.5 q0 -186 -35 -348q-4 -23 -23.5 -37t-44.5 -14q-43 0 -43 41q33 176 33 344q0 164 -36 465t-42 405l-258 7q-86 0 -190 -7q-33 0 -33 39z" />
<glyph unicode="u" horiz-adv-x="1384" d="M184 735q0 68 17.5 203t17.5 197q0 37 -14.5 98t-14.5 84q0 27 23 44t49 17q49 0 57 -41q27 -72 27 -166q0 -39 -17.5 -235.5t-17.5 -411.5q0 -201 90.5 -320.5t288.5 -119.5q195 0 290 140.5t95 357.5q0 106 -53 315t-53 324q0 55 10 137q10 43 72 43q53 0 53 -49 q-10 -53 -10 -129q0 -119 53 -372t53 -374q0 -213 -140 -369.5t-355 -156.5q-133 0 -231.5 49t-153 123t-86 185.5t-41 207.5t-9.5 219z" />
<glyph unicode="v" horiz-adv-x="1392" d="M123 1176q0 141 47 237q41 49 78 49q20 0 33.5 -14t13.5 -37q0 -41 -20.5 -127t-20.5 -135q0 -225 104.5 -468t270.5 -519q123 129 227.5 359.5t206.5 514t172 418.5q12 37 49 37q27 0 47.5 -20.5t20.5 -49.5q0 -20 -11 -37q-57 -117 -143 -319.5t-157.5 -372.5 t-148.5 -336t-144.5 -261t-118.5 -95q-217 199 -361.5 532t-144.5 644z" />
<glyph unicode="w" horiz-adv-x="1579" d="M61 1307q0 35 19.5 60.5t42.5 25.5q20 0 29 -21q70 -174 203.5 -584.5t217.5 -611.5q14 0 48 83t78 190.5t75 150.5q4 16 26.5 39t49.5 23q41 0 78 -76q25 -41 99.5 -212t121.5 -233q80 502 80 1008q0 47 23.5 69.5t56.5 22.5q27 0 45 -12t20 -31q-29 -145 -41 -373.5 t-33.5 -439.5t-76.5 -371q-23 -23 -60 -22q-27 0 -41 14q-51 53 -96 130t-96 180.5t-76 148.5q-12 -25 -100 -180.5t-115 -243.5q-10 -49 -72 -49q-57 0 -69 35q-111 264 -250 697t-180 546q-7 21 -7 37z" />
<glyph unicode="x" horiz-adv-x="1273" d="M61 1137q0 47 25 88t70 41q78 0 174 -74t159.5 -150.5t118.5 -160.5q86 389 123 487q10 27 57 27q31 0 56.5 -13.5t25.5 -33.5q0 -55 -67.5 -283.5t-79.5 -312.5q86 -88 180 -214t150.5 -214t150.5 -240q8 -18 8 -37q0 -47 -59 -47q-31 0 -57.5 13.5t-34.5 33.5 q-45 70 -118 203t-139.5 236.5t-139.5 181.5q-29 -135 -141.5 -324.5t-147.5 -296.5q-12 -41 -74 -41q-57 0 -57 35q0 8 2 12q39 117 158.5 325t152.5 361q-49 82 -174 174.5t-223.5 151t-98.5 72.5z" />
<glyph unicode="y" horiz-adv-x="1208" d="M61 1352q0 29 25 51t53 22q35 0 51 -26q127 -330 420 -559q193 262 447 534q16 18 41 19q20 0 34.5 -20.5t14.5 -45.5q0 -31 -23 -57q-182 -211 -403 -498q-47 -72 -47 -244q0 -29 1 -91t1 -95q0 -74 -7 -126t-27.5 -111.5t-70 -91t-122.5 -31.5q-59 0 -60 51 q0 20 12.5 36.5t32.5 16.5q6 0 18.5 -4t20.5 -4q86 0 86 258q0 63 -5 131t-14.5 160t-13.5 135q-322 236 -460 569q-5 13 -5 21z" />
<glyph unicode="z" horiz-adv-x="1189" d="M82 1362q0 25 47 35q63 -6 131 -6q86 0 261 14t270 14q211 0 210 -84q0 -41 -32 -51q-539 -549 -666 -1165q57 0 182 6t201 6q244 0 422 -27q18 0 29.5 -16t11.5 -39q0 -53 -41 -53q-176 27 -406 27q-158 0 -473 -17q-20 0 -36.5 42t-16.5 79q0 137 61.5 305t151.5 315.5 t178 272.5t156 209t70 92q-10 0 -30 2t-28 2q-68 0 -201 -24.5t-208 -24.5q-68 0 -156 20.5t-88 65.5z" />
<glyph unicode="{" horiz-adv-x="702" d="M82 713q0 43 19.5 68.5t48 39t57.5 30.5t48 62t19 119q0 131 2.5 198.5t14.5 153.5t37 132q51 94 213 100q49 0 72.5 -3t42 -18.5t18.5 -46.5q0 -23 -38 -41t-65 -18q-37 0 -46 1t-29 1q-66 0 -78 -90l-12 -322q-12 -322 -211 -360q100 -33 160.5 -134.5t60.5 -242.5 q0 -307 33 -356q16 -27 47.5 -40.5t60.5 -15.5t82 -2q29 0 46 -19.5t17 -35.5q0 -35 -46 -49t-95 -14q-111 0 -150.5 19t-76.5 85q-57 102 -58 444q0 80 -30.5 139.5t-66.5 87t-66.5 60.5t-30.5 68z" />
<glyph unicode="|" horiz-adv-x="587" d="M225 1298q0 31 4 97q2 31 43 30q53 0 54 -41q-6 -55 -7 -112q0 -90 21.5 -281.5t21.5 -292.5q0 -139 -7 -400t-9 -359q0 -33 -45 -33q-25 0 -46.5 13t-21.5 32q2 86 19.5 336t17.5 387q0 102 -22.5 310t-22.5 314z" />
<glyph unicode="}" horiz-adv-x="702" d="M0 -127q0 16 17.5 35.5t45.5 19.5q53 0 82 2t61 15.5t48 40.5q33 49 33 356q0 141 60.5 242.5t160.5 134.5q-199 39 -211 360l-12 322q-12 90 -78 90q-20 0 -29.5 -1t-46.5 -1q-27 0 -64.5 18.5t-37.5 40.5q0 45 30.5 56.5t102.5 11.5q162 -6 213 -100q25 -45 37 -131.5 t14 -154t2 -198.5q0 -74 19.5 -119t48 -62t57.5 -30.5t48.5 -39t19.5 -68.5q0 -35 -31 -68t-67 -60.5t-66.5 -87t-30.5 -139.5q0 -342 -57 -444q-37 -66 -77 -85t-151 -19q-49 0 -95 14t-46 49z" />
<glyph unicode="~" horiz-adv-x="1171" d="M102 834q0 20 22.5 39.5t39.5 19.5q25 0 54.5 -34t54 -72.5t64.5 -71.5t83 -33q27 0 72 35t88 77t114.5 76.5t145 34.5t151.5 -88t78 -182q0 -29 -39 -29q-27 0 -43 8.5t-40.5 54.5t-57.5 87t-78 41q-39 0 -89 -36t-93 -78t-103.5 -78t-119.5 -36q-39 0 -76 13.5 t-61.5 30t-50 44t-38 45t-31 46t-20.5 32.5q-27 40 -27 54z" />
<glyph unicode="&#xa9;" horiz-adv-x="1568" d="M143 649q0 119 41 250t115 246t191.5 189.5t252.5 74.5q346 0 514 -217t168 -580q0 -274 -183 -442t-480 -168q-248 0 -433.5 187.5t-185.5 459.5zM248 686q0 -293 147.5 -442.5t415.5 -149.5q221 0 363.5 158t142.5 430q0 215 -104.5 395t-290.5 219q-18 -18 -39 -18 q-23 0 -74 15.5t-82 15.5q-137 0 -251 -100.5t-171 -242t-57 -280.5zM457 662q0 201 82 327.5t272 126.5q137 0 186 -65q10 -6 11 -21q0 -25 -26 -47t-48 -22q-2 0 -61.5 31.5t-108.5 31.5q-100 0 -154.5 -125t-56.5 -248q8 -121 96 -194.5t197 -73.5q31 0 88 15.5 t79.5 15.5t47 -24.5t24.5 -49.5q0 -16 -14 -18q-117 -37 -205 -37q-178 0 -293.5 105.5t-115.5 271.5z" />
<glyph unicode="&#xab;" horiz-adv-x="983" d="M61 684q0 63 90.5 150.5t202.5 156.5q8 6 31 28.5t45.5 38t38.5 15.5q20 0 48 -14.5t28 -28.5q0 -33 -78 -91t-141 -93q-137 -80 -138 -139q0 -29 29 -59t78 -54.5t93 -43t97.5 -36.5t67.5 -25q20 -6 20 -24q0 -20 -21.5 -48t-45.5 -28q-445 164 -445 295zM356 700 q0 25 29 62t80 81t92 76.5t94.5 71.5t59.5 43q10 12 28.5 12.5t44 -22.5t25.5 -39q0 -14 -14 -22q-33 -31 -139.5 -114t-137.5 -112q176 -43 363 -198q20 -20 20 -45q0 -90 -74 -91q-6 0 -18 7q-14 12 -76.5 61t-86 65.5t-73 48t-92.5 47t-90 23.5q-35 8 -35 45z" />
<glyph unicode="&#xae;" horiz-adv-x="1568" d="M143 649q0 119 41 250t115 246t191.5 189.5t252.5 74.5q346 0 514 -217t168 -580q0 -274 -183 -442t-480 -168q-248 0 -433.5 187.5t-185.5 459.5zM248 686q0 -293 147.5 -442.5t415.5 -149.5q221 0 363.5 158t142.5 430q0 215 -104.5 395t-290.5 219q-18 -18 -39 -18 q-23 0 -74 15.5t-82 15.5q-137 0 -251 -100.5t-171 -242t-57 -280.5zM494 942q0 113 61 205q213 -12 322.5 -80t109.5 -221q0 -59 -61.5 -100t-173.5 -41q111 -35 248 -127.5t137 -180.5q0 -74 -50 -82q-43 80 -173 200t-244 120q-6 0 -13.5 -1t-17.5 -3t-16 -2 q4 -25 16 -67t19.5 -74.5t7.5 -57.5q0 -57 -15 -123q-4 -23 -47 -22q-41 0 -41 26q8 55 8 117q0 88 -38.5 261t-38.5 253zM578 965q0 -72 20 -181q31 -4 109 -4q182 0 182 92q0 57 -60.5 102.5t-128 64t-116.5 18.5q-6 -49 -6 -92z" />
<glyph unicode="&#xb0;" horiz-adv-x="847" d="M123 1198q25 297 287 297q145 0 230 -81t85 -232q0 -115 -86 -193t-231 -78q-121 0 -203 74t-82 213zM217 1180q0 -70 52.5 -118t131.5 -48q96 0 148.5 52t52.5 120q0 96 -46 153.5t-136 57.5q-84 0 -143.5 -61.5t-59.5 -155.5z" />
<glyph unicode="&#xbb;" horiz-adv-x="983" d="M82 907q0 90 74 90q6 0 18 -6q14 -12 76.5 -61t86 -65.5t73 -48.5t92.5 -47t90 -24q35 -8 35 -45q0 -25 -29 -61.5t-80 -80.5t-92 -76.5t-94 -71.5t-60 -43q-10 -12 -28.5 -12.5t-44 22t-25.5 39.5q0 14 14 22q33 31 139.5 114t137.5 112q-176 43 -363 198q-20 20 -20 45 zM410 936q0 20 21.5 48t45.5 28q444 -164 445 -295q0 -63 -90.5 -150.5t-202.5 -156.5q-8 -6 -31 -29t-45.5 -38t-38.5 -15q-20 0 -48 14t-28 29q0 33 78 91t141 93q137 80 138 139q0 29 -29 58.5t-78 54t-93 43t-97.5 37t-67.5 24.5q-20 7 -20 25z" />
<glyph unicode="&#x2c6;" horiz-adv-x="1034" d="M82 948q0 12 12 25q57 80 146.5 212t175.5 245q4 4 20.5 22t27.5 30.5t29.5 23t34.5 10.5q59 0 103 -70q186 -252 311 -471q8 -8 10 -17q0 -20 -22.5 -35.5t-44.5 -17.5q-43 0 -54 17q-231 358 -311 440q-33 -47 -145.5 -199.5t-157.5 -220.5q-16 -23 -67 -22 q-68 -1 -68 28z" />
<glyph unicode="&#x2da;" d="M-313 410q25 297 287 297q145 0 230 -81t85 -232q0 -115 -86 -193t-231 -78q-121 0 -203 74t-82 213zM-219 392q0 -70 52.5 -118t131.5 -48q96 0 148.5 52t52.5 120q0 96 -46 153.5t-136 57.5q-84 0 -143.5 -61.5t-59.5 -155.5z" />
<glyph unicode="&#x2dc;" d="M-492 388q0 20 22.5 39.5t39.5 19.5q25 0 54.5 -34t54 -72.5t64.5 -71.5t83 -33q27 0 72 35t88 77t114.5 76.5t145 34.5t151.5 -88t78 -182q0 -29 -39 -29q-27 0 -43 8.5t-40.5 54.5t-57.5 87t-78 41q-39 0 -89 -36t-93 -78t-103.5 -78t-119.5 -36q-39 0 -76 13.5 t-61.5 30t-50 44t-38 45t-31 46t-20.5 32.5q-27 40 -27 54z" />
<glyph unicode="&#x400;" horiz-adv-x="1181" d="M53 1956q0 59 88 59q20 0 47 -24.5t58.5 -71.5t55 -85t56.5 -95t43 -74q4 -8 4 -10q0 -27 -59 -27q-37 0 -58 21q-18 23 -62 74t-66.5 78.5t-51 64.5t-42 58.5t-13.5 31.5zM205 98q0 18 2 29q39 266 45 728t14 593q2 27 27.5 42t56.5 15q43 0 47 -32q111 -6 327 -63.5 t327 -63.5q37 0 36 -35q0 -27 -23.5 -55.5t-51.5 -28.5q-111 6 -317 61t-306 66q-6 -145 -9 -322.5t-7 -283.5q27 4 130 19t148 21.5t124 13.5t145 7q39 0 60 -18.5t21 -42.5q0 -18 -12 -30.5t-31 -12.5q-246 0 -593 -66q-2 -23 -7.5 -150t-10.5 -225t-13 -149l385 -37 q59 0 110.5 4t84 9t56 10t36.5 10l12 4q37 0 59.5 -26t22.5 -56q0 -41 -39 -41q-63 0 -238.5 -10.5t-265.5 -10.5q-352 0 -352 127z" />
<glyph unicode="&#x401;" horiz-adv-x="1234" d="M205 1696q0 80 74 80q80 0 86 -68q31 0 52 -19.5t21 -43.5q0 -59 -71 -60q-158 0 -162 111zM268 641q0 332 78 758q20 63 70 63q41 0 51 -43q115 20 244 21q109 0 188 -10q51 -10 51 -78q0 -74 -65 -74q-66 8 -150 8q-127 0 -295 -22q-66 -336 -65 -566q0 -217 63 -577 q59 20 152 20q43 0 131 -6t133 -6q35 0 102.5 16.5t100.5 16.5q23 0 39 -24.5t16 -53.5q0 -92 -192 -92q-53 0 -163 17.5t-167 17.5q-78 0 -150 -25q-27 -41 -57.5 -41t-36.5 41q-78 305 -78 639zM461 786q0 57 49 68q45 6 120 17.5t129 17.5t107.5 6t53.5 -68 q0 -35 -18.5 -61.5t-47.5 -26.5q-84 0 -315 -34q-37 0 -57.5 24t-20.5 57zM725 1681q0 35 18.5 61.5t49.5 26.5q55 0 55 -61q0 -35 -20.5 -63.5t-51.5 -28.5q-51 -1 -51 65z" />
<glyph unicode="&#x402;" horiz-adv-x="1355" d="M41 1337q0 53 31 54q125 16 278 26v2q0 25 23.5 40.5t54.5 15.5q41 0 55 -50q139 4 211 5q162 0 162 -60q0 -43 -41 -43q-217 -8 -323 -14q-2 -78 -8.5 -227.5t-6.5 -176.5q18 6 60.5 17.5t54.5 15.5t39.5 10t41 8.5t35 4.5t42.5 2q207 0 324.5 -138.5t117.5 -437.5 q0 -172 -102.5 -318.5t-262.5 -146.5q-35 6 -34 51q0 53 30 54q80 0 136.5 70.5t78 154.5t21.5 162q0 217 -94.5 327.5t-227.5 110.5q-115 0 -262 -63q-6 -74 -6 -146q0 -61 5 -190t5 -201q0 -102 -8 -190q-10 -37 -61 -37q-39 0 -39 28q0 23 4 79.5t4 92.5q0 86 -9.5 198 t-9.5 202q0 76 5.5 231.5t5.5 235.5q0 115 -9 211q-100 -4 -286 -21q-35 6 -35 51z" />
<glyph unicode="&#x403;" horiz-adv-x="1148" d="M143 1270q0 33 26 65.5t60 32.5h45q0 31 27 53.5t61 22.5q70 0 70 -82q25 -10 188.5 -13t305 -16.5t141.5 -52.5q0 -33 -26.5 -66.5t-61.5 -33.5q-82 0 -168 5t-213 16t-172 16q2 -156 32.5 -473.5t30.5 -481.5q0 -92 -10 -209q-6 -29 -34.5 -45t-61.5 -16q-59 0 -59 37 q0 31 6 101.5t6 113.5q0 166 -33 491.5t-33 489.5q-29 2 -86 2q-41 0 -41 43zM569 1491q0 29 38 91.5t89 115.5q4 4 21.5 22.5t24 25.5t22.5 20.5t26.5 18.5t27 10t32.5 5q88 0 88 -59q0 -16 -33 -51t-108.5 -106t-114.5 -109q-20 -20 -57 -21q-56 0 -56 37z" />
<glyph unicode="&#x404;" horiz-adv-x="1167" d="M143 709q0 285 154 489.5t422 204.5q180 0 325 -76q39 -16 39 -55q0 -33 -30 -33q-41 0 -156 37t-172 37q-115 0 -201 -43t-135 -123t-76.5 -165t-42.5 -196q139 -20 246 -20q45 0 135 17.5t121 17.5q18 0 34.5 -18.5t16.5 -37.5q0 -23 -22 -30q-127 -43 -271 -43 q-111 0 -268 24q4 -123 29.5 -229.5t77 -198.5t141.5 -146t211 -54q49 0 90 8q68 0 68 -62q0 -27 -25 -32q-68 -10 -125 -11q-145 0 -261 65.5t-184.5 173t-104.5 236t-36 263.5z" />
<glyph unicode="&#x405;" horiz-adv-x="1310" d="M20 291q0 27 28 49t58 22q16 0 37 -10q125 -111 287 -178.5t326 -67.5q115 0 217 56.5t102 167.5q0 90 -57 160.5t-142 112.5t-185.5 90t-185.5 94.5t-142.5 127t-57.5 185.5q0 137 113.5 233.5t257.5 96.5q92 0 183 -47.5t91 -106.5q0 -25 -24.5 -43.5t-53.5 -18.5 q-33 0 -49 21q-68 88 -172 88q-88 0 -155.5 -58.5t-67.5 -144.5q0 -92 57.5 -163.5t144.5 -113.5t188.5 -90t188.5 -91.5t144 -116t57 -166.5q0 -180 -136 -279.5t-355 -99.5q-174 0 -354.5 70.5t-325.5 183.5q-17 17 -17 37z" />
<glyph unicode="&#x406;" horiz-adv-x="663" d="M143 1417q0 57 45 68q147 16 170 16q43 0 125 -16q37 -6 37 -55q0 -25 -12 -43.5t-35 -18.5q-61 12 -123 12q0 -137 23.5 -369.5t23.5 -371.5q0 -57 -6 -208.5t-6 -215.5q0 -74 31 -154q25 0 51.5 -14t26.5 -37q0 -12 -10.5 -23.5t-24.5 -11.5q-59 -12 -187 -12 q-27 0 -45 15.5t-18 41.5q0 14 16.5 26.5t32.5 12.5q20 0 33 -2q-18 49 -19 121q0 63 8.5 227t8.5 236q0 127 -20.5 354.5t-22.5 378.5l-66 -6q-37 0 -37 49z" />
<glyph unicode="&#x407;" horiz-adv-x="722" d="M82 1700q2 4 10 21.5t12.5 23.5t13.5 20.5t17 20.5t20.5 11t27 5t24.5 -13t10 -30q0 -10 -2 -14q8 -4 33.5 -7t41 -11.5t15.5 -28.5q0 -23 -16.5 -44.5t-36.5 -21.5q-2 0 -29.5 4t-44 7.5t-40 10.5t-38 18.5t-18.5 27.5zM205 1417q0 57 45 68q147 16 170 16q43 0 125 -16 q37 -6 37 -55q0 -25 -12.5 -43.5t-34.5 -18.5q-61 12 -123 12q0 -137 23.5 -369.5t23.5 -371.5q0 -57 -6.5 -208.5t-6.5 -215.5q0 -74 31 -154q25 0 51.5 -14t26.5 -37q0 -12 -10 -23.5t-25 -11.5q-59 -12 -186 -12q-27 0 -45.5 15.5t-18.5 41.5q0 14 16.5 26.5t32.5 12.5 q20 0 33 -2q-18 49 -18 121q0 63 8 227t8 236q0 127 -20.5 354.5t-22.5 378.5l-65 -6q-37 0 -37 49zM410 1776q0 25 36.5 36t71.5 11q41 0 82 -19.5t41 -58.5q0 -43 -45 -76t-92 -33q-51 0 -51 37q0 12 10 21.5t29.5 19.5t25.5 17l-6 2q-4 4 -11 6t-9 2q-12 0 -20.5 -6 t-10.5 -6q-16 0 -33.5 14.5t-17.5 32.5z" />
<glyph unicode="&#x408;" horiz-adv-x="1077" d="M82 424q0 31 51 31q72 0 72 -47q0 -117 80 -200t200 -83q61 0 104.5 41t64 107.5t29.5 127t9 119.5q0 80 -24.5 255t-24.5 276q0 160 16 249q-70 0 -137 -10q-41 0 -41 64q0 94 123 94q90 0 287 -35q18 0 30.5 -12t12.5 -31q0 -27 -17.5 -48.5t-44.5 -21.5q-20 16 -86 17 q-27 0 -34 -4q-18 -88 -19 -166q0 -115 42 -345.5t42 -352.5q0 -170 -107.5 -315.5t-269.5 -145.5q-150 0 -254 138t-104 298z" />
<glyph unicode="&#x409;" horiz-adv-x="1847" d="M41 -2q0 23 9 48.5t22 25.5q248 0 247 366q0 80 -1 137.5t-1 139.5q0 123 -5 362.5t-5 362.5q0 41 62 41q37 0 81 -15.5t85 -15.5q74 0 221 14.5t225 14.5q61 0 63 -45q10 -332 13 -615q74 20 153 21q109 0 224.5 -45t202.5 -140.5t87 -214.5q0 -143 -95 -249.5 t-227 -155.5t-274 -49q-31 0 -93 -1t-89 -1q-47 0 -73.5 19.5t-26.5 43.5q0 23 22.5 41t61.5 23q2 88 2 262q0 158 -4 474t-4 478q-20 2 -60 2q-59 0 -169.5 -15.5t-192.5 -15.5q-33 0 -51 -2q2 -74 9 -328.5t7 -400.5q0 -18 -4 -162q-8 -225 -112.5 -351t-274.5 -126 q-35 6 -35 72zM1047 90q27 -4 79 -4q98 0 207 34t196 110.5t87 177.5q0 150 -139.5 241.5t-307.5 91.5q-59 0 -110 -12q0 -385 -12 -639z" />
<glyph unicode="&#x40a;" horiz-adv-x="1622" d="M225 426q0 113 17.5 338t17.5 340q0 47 -12 143t-12 146q0 23 35.5 40t60.5 17q35 0 45 -47q23 -147 22 -281q0 -88 -12 -252q211 -23 432 -28q0 8 1 24.5t1 22.5q0 41 -6 122t-6 122q0 43 -6 129t-6 129q0 23 24.5 38t55.5 15q82 0 81 -86q0 -29 -5 -89.5t-5 -90.5 q0 -66 3 -189t3 -170q74 20 154 21q168 0 300 -109.5t132 -290.5q0 -215 -149.5 -334.5t-364.5 -119.5h-61q-4 -27 -30 -43.5t-54 -16.5q-47 0 -54 37q-6 23 -45 40t-39 44q0 45 64 59q-6 92 -6 185q0 68 14 454q-287 0 -436 27q-18 -203 -19 -336q0 -197 41 -346 q4 -16 5 -27q0 -31 -17.5 -54t-40.5 -23q-16 0 -41.5 9t-27.5 25q-54 177 -54 406zM942 245.5q0 -106.5 6 -159.5h76q152 0 280 86t128 236q0 156 -103.5 244.5t-261.5 88.5q-59 0 -111 -12q0 -66 -7 -221.5t-7 -262z" />
<glyph unicode="&#x40b;" horiz-adv-x="1376" d="M41 1337q0 53 31 54q125 16 278 26v2q0 25 23.5 40.5t54.5 15.5q41 0 55 -50q139 4 211 5q162 0 162 -60q0 -43 -41 -43q-217 -8 -323 -14q-2 -80 -8.5 -262.5t-6.5 -202.5q203 57 305 57q215 0 312.5 -117.5t97.5 -396.5q0 -209 -27 -321q-18 -78 -65 -78t-47 57 q0 55 3 195.5t3 249.5q0 170 -81 235.5t-220 65.5q-135 0 -283 -64q-6 -74 -6 -145q0 -61 5 -170t5 -180q0 -102 -8 -191q-10 -37 -61 -37q-39 0 -39 29q0 23 4 79t4 93q0 86 -9.5 208t-9.5 212q0 76 5.5 231.5t5.5 235.5q0 115 -9 211q-100 -4 -286 -21q-35 6 -35 51z" />
<glyph unicode="&#x40c;" horiz-adv-x="1280" d="M205 432q0 133 21.5 398.5t21.5 396.5q0 100 -8 198q0 47 53 48q29 0 50.5 -16.5t21.5 -41.5q14 -113 14 -237q0 -135 -12 -271q86 41 178 123t199.5 193.5t166.5 165.5q16 8 37 8q47 0 47 -51q0 -37 -28 -58q-59 -41 -121 -99.5t-131.5 -131t-110.5 -111.5 q49 -57 94 -117.5t90.5 -136.5t76 -128t77.5 -147t67.5 -136t73 -153t66.5 -140q8 -20 8 -37q0 -25 -23.5 -48.5t-50.5 -23.5q-25 0 -32 27q-27 55 -88.5 190t-99.5 212t-97 187.5t-122.5 201.5t-135.5 171q-66 -51 -150 -86q-16 -301 -16 -338q0 -201 39 -381 q0 -43 -62 -43q-29 0 -52 13.5t-27 38.5q-35 157 -35 360zM520 1470q0 29 38 91.5t89 115.5q4 4 21.5 22.5t23.5 26t22.5 20.5t27 18t26.5 10.5t33 5.5q88 0 88 -60q0 -16 -33 -51t-108.5 -105.5t-114.5 -109.5q-20 -20 -58 -20q-55 -1 -55 36z" />
<glyph unicode="&#x40d;" horiz-adv-x="1175" d="M559 1855q0 59 88 59q20 0 47 -24.5t58.5 -71.5t55 -85t56.5 -95t43 -74q4 -8 4 -10q0 -27 -59 -27q-37 0 -58 21q-18 23 -62 74t-66.5 78.5t-51 64.5t-42 58.5t-13.5 31.5zM246 16q0 219 19.5 657.5t19.5 657.5q0 27 22.5 43.5t50.5 16.5q53 0 54 -45q0 -248 -27 -883 q33 72 93.5 211t99 225t104.5 198.5t137 196.5l8 78q2 33 29 33q25 0 49.5 -26.5t24.5 -63.5q0 -78 -8.5 -214t-8.5 -204q0 -137 8.5 -416.5t8.5 -421.5q0 -47 -35 -47q-23 0 -45.5 21.5t-22.5 52.5q0 170 -8 491.5t-8 477.5q-98 -147 -229 -455.5t-203 -431.5 q-2 -47 -2 -139q0 -27 -22.5 -42.5t-51.5 -15.5q-57 0 -57 45z" />
<glyph unicode="&#x40e;" horiz-adv-x="1138" d="M102 1343q0 29 25 56.5t47 27.5q14 0 23 -14q51 -100 70.5 -137t70.5 -125t88 -133t92 -107.5t115.5 -102.5t130.5 -69q94 326 94 662q0 29 22.5 49t49.5 20q39 0 45 -45q0 -381 -195 -972q-141 -426 -481 -494q-59 0 -59 43q0 25 17 47.5t42 26.5q74 14 134.5 49t97 73 t72.5 107.5t53.5 113.5t45.5 128l25 69q-111 45 -205 121t-171 177.5t-131 193.5t-114 215q-4 6 -4 20zM391 1542q0 27 13.5 47.5t35.5 20.5q27 6 89.5 13t102.5 16.5t48 29.5q6 12 12 12q12 0 23.5 -28.5t11.5 -61.5q0 -51 -51 -63q-190 -45 -246 -45q-39 0 -39 59z" />
<glyph unicode="&#x40f;" horiz-adv-x="1239" d="M205 84q27 215 26 504q0 129 -7 393t-7 395q0 35 37 35q31 0 58.5 -22.5t27.5 -55.5q0 -127 8 -384t8 -386q0 -221 -20 -424q283 0 532 -28q-2 131 -32.5 422.5t-30.5 445.5q0 244 53 424q6 35 64 35q72 0 71 -41q-55 -197 -55 -430q0 -158 31.5 -451t36.5 -420 q0 -2 -2 -6q31 -18 30 -65q0 -63 -55 -64q-98 12 -295 29q-2 -133 -25 -269q-10 -47 -71 -47q-55 0 -56 39q25 119 25 283q-135 6 -272 6q-33 0 -56.5 26.5t-23.5 55.5z" />
<glyph unicode="&#x410;" horiz-adv-x="1249" d="M164 571q0 33 20.5 60.5t53.5 27.5l79 -18l5 31q23 166 34 240.5t34.5 184t53.5 191.5l-20 43q0 33 24.5 55.5t55.5 22.5q37 0 55 -25q29 -70 155 -357.5t187 -444.5q8 -2 23 -2q39 -10 39 -62q0 -39 -17 -57q88 -221 139 -432q0 -29 -26.5 -51.5t-54.5 -22.5 q-35 0 -43 31q-57 215 -156 471q-74 8 -209 20t-188 19q-6 -45 -43 -186.5t-37 -194.5q0 -8 4 -25.5t4 -28.5q0 -29 -24.5 -53t-49.5 -24q-47 0 -47 90q0 59 14.5 132t38 164t33.5 136l-104 18q-33 6 -33 47zM424 627q33 -4 328 -33q-102 254 -238 543q-20 -76 -35.5 -161 t-31 -191.5t-23.5 -157.5z" />
<glyph unicode="&#x411;" horiz-adv-x="1148" d="M225 1366q0 41 33 53q10 8 53 14.5t87 9.5t91.5 5t49.5 2q143 0 389 -31q27 -6 42 -32.5t15 -55.5q0 -45 -33 -45q-55 0 -186 15.5t-203 15.5q-61 0 -92 -2q0 -117 -29 -529q68 10 127 11q176 0 294 -79t118 -245q0 -244 -186.5 -381t-442.5 -141q-33 0 -51 16.5 t-18 38.5q0 20 16 37q-16 125 -16 285q0 104 12 317q-23 8 -39 25.5t-16 34.5q0 25 65 47q33 432 35 546q-29 -12 -53 -12q-27 0 -44.5 25.5t-17.5 54.5zM416 309q0 -125 12 -252q27 -6 55 -6q150 0 256.5 127t106.5 279q0 109 -72 178.5t-184 69.5q-84 0 -158 -23 q-16 -250 -16 -373z" />
<glyph unicode="&#x412;" horiz-adv-x="1347" d="M205 1311q0 41 95 84t146 43q121 0 204 -89t83 -216q0 -158 -127 -314q109 -4 247 -68.5t244.5 -176t106.5 -222.5q0 -342 -747 -360q0 -23 -21.5 -39t-46.5 -16q-45 0 -45 45q0 12 2 18q-129 27 -129 109q0 49 35 49q18 0 59 -18.5t51 -20.5q-8 119 -20 233.5t-31.5 255 t-31 215t-39 254t-35.5 234.5zM336 1282q12 -135 74.5 -539.5t68.5 -631.5q80 0 165 10t187.5 35.5t168 85t65.5 143.5q0 72 -68.5 132.5t-150.5 91t-192.5 68.5t-151.5 58q-39 12 -39 66q0 39 45 93t91 115.5t46 112.5q0 76 -60.5 133.5t-138.5 57.5q-65 0 -110 -31z" />
<glyph unicode="&#x413;" horiz-adv-x="1169" d="M266 1440q0 41 62 41q29 0 50 -11.5t21 -29.5q51 10 95 10q96 0 283.5 -56.5t277.5 -62.5q33 -6 32.5 -41t-29 -72.5t-59.5 -37.5q-76 8 -255 62t-283 54q-33 0 -51 -2q4 -471 12 -608q2 -25 14.5 -228.5t12.5 -307.5q0 -154 -68 -154q-35 0 -62.5 16.5t-27.5 46.5 q20 55 20 117q0 88 -17.5 271.5t-17.5 267.5q0 123 -5 362.5t-5 362.5z" />
<glyph unicode="&#x414;" horiz-adv-x="1425" d="M102 82q0 45 37 53q80 6 166 6q43 264 43 598q0 74 -9 220.5t-9 224.5q0 102 73.5 178t180.5 76q160 0 264 -114t104 -282q0 -92 -16 -282.5t-16 -292.5q0 -199 63 -334q197 4 295 17q29 0 47 -29t18 -62q0 -39 -26 -39q-121 -12 -299 -12q-90 0 -274.5 5t-276.5 5 q-180 0 -301 -12q-29 0 -46.5 23.5t-17.5 52.5zM418 141q82 0 234.5 -4t203.5 -4q-49 131 -49 299q0 76 13.5 236.5t13.5 253.5q0 74 -12.5 139t-41 127.5t-86 99.5t-139.5 37q-113 0 -113 -119q0 -55 11.5 -169.5t11.5 -182.5q0 -250 -47 -713z" />
<glyph unicode="&#x415;" horiz-adv-x="1181" d="M205 98q0 18 2 29q39 266 45 728t14 593q2 27 27.5 42t56.5 15q43 0 47 -32q111 -6 327 -63.5t327 -63.5q37 0 36 -35q0 -27 -23.5 -55.5t-51.5 -28.5q-111 6 -317 61t-306 66q-6 -145 -9 -322.5t-7 -283.5q27 4 130 19t148 21.5t124 13.5t145 7q39 0 60 -18.5t21 -42.5 q0 -18 -12 -30.5t-31 -12.5q-246 0 -593 -66q-2 -23 -7.5 -150t-10.5 -225t-13 -149l385 -37q59 0 110.5 4t84 9t56 10t36.5 10l12 4q37 0 59.5 -26t22.5 -56q0 -41 -39 -41q-63 0 -238.5 -10.5t-265.5 -10.5q-352 0 -352 127z" />
<glyph unicode="&#x416;" horiz-adv-x="1751" d="M82 -12q0 102 43 180t127 156q31 29 182.5 174t313.5 299q-49 39 -166 125t-202 158.5t-165 162.5q-10 12 -10 37q0 27 14 50.5t33 23.5q14 0 22 -15q139 -158 449 -376q-51 240 -51 438q0 16 13 33.5t34 17.5q49 0 49 -111q0 -223 68 -458q289 283 452 471q14 20 45 20 q25 0 44.5 -12t19.5 -31q0 -14 -15 -26q-174 -207 -460 -486q111 -82 350 -288.5t377 -299.5q20 -14 20 -45q0 -27 -16.5 -49t-38.5 -22q-10 0 -23 6q-133 92 -366.5 298t-356.5 294q6 -29 28 -112t31 -119t25.5 -108.5t25.5 -120.5t18.5 -110.5t13.5 -117.5 q0 -29 -14.5 -44.5t-34.5 -15.5q-39 0 -46 49q-4 80 -19 175.5t-29.5 159t-42 179t-38.5 164.5q-264 -262 -403 -379q-57 -55 -87 -87.5t-61.5 -93t-31.5 -118.5q0 -27 -23.5 -41t-52.5 -14q-45 0 -45 29z" />
<glyph unicode="&#x417;" horiz-adv-x="1361" d="M82 367q0 68 51 67q25 0 44.5 -20.5t21.5 -59.5q4 -70 50 -121t114.5 -77.5t136 -39t133.5 -12.5q72 0 153.5 14.5t171 45.5t146.5 94.5t57 147.5q0 145 -154.5 255.5t-316.5 110.5q-39 0 -80 -10q-31 0 -46 20.5t-15 48.5q0 66 47 76q68 14 127 49t59 84q0 90 -86 165 t-204 81v-59q0 -29 -23 -51.5t-49 -22.5q-45 0 -45 61q0 88 41 154t121 66q127 0 241.5 -120t114.5 -253q0 -106 -57 -170q176 -45 310 -175t134 -300q0 -98 -41 -178t-107.5 -130.5t-154.5 -83t-177 -46t-184 -13.5q-106 0 -198 21.5t-169 66.5t-122 125t-45 189z" />
<glyph unicode="&#x418;" horiz-adv-x="1175" d="M246 16q0 219 19.5 657.5t19.5 657.5q0 27 22.5 43.5t50.5 16.5q53 0 54 -45q0 -248 -27 -883q33 72 93.5 211t99 225t104.5 198.5t137 196.5l8 78q2 33 29 33q25 0 49.5 -26.5t24.5 -63.5q0 -78 -8.5 -214t-8.5 -204q0 -137 8.5 -416.5t8.5 -421.5q0 -47 -35 -47 q-23 0 -45.5 21.5t-22.5 52.5q0 170 -8 491.5t-8 477.5q-98 -147 -229 -455.5t-203 -431.5q-2 -47 -2 -139q0 -27 -22.5 -42.5t-51.5 -15.5q-57 0 -57 45z" />
<glyph unicode="&#x419;" horiz-adv-x="1175" d="M246 16q0 219 19.5 657.5t19.5 657.5q0 27 22.5 43.5t50.5 16.5q53 0 54 -45q0 -248 -27 -883q33 72 93.5 211t99 225t104.5 198.5t137 196.5l8 78q2 33 29 33q25 0 49.5 -26.5t24.5 -63.5q0 -78 -8.5 -214t-8.5 -204q0 -137 8.5 -416.5t8.5 -421.5q0 -47 -35 -47 q-23 0 -45.5 21.5t-22.5 52.5q0 170 -8 491.5t-8 477.5q-98 -147 -229 -455.5t-203 -431.5q-2 -47 -2 -139q0 -27 -22.5 -42.5t-51.5 -15.5q-57 0 -57 45zM463 1563q0 27 13 47t36 20q27 6 89.5 13.5t102 16.5t48.5 30q6 12 12 12q12 0 23.5 -28.5t11.5 -61.5q0 -51 -51 -64 q-190 -45 -246 -45q-39 1 -39 60z" />
<glyph unicode="&#x41a;" horiz-adv-x="1232" d="M225 606q0 33 37 49q-10 121 -17 353.5t-18 341.5q0 25 27 44t57 19q37 0 43 -33q18 -92 25.5 -203.5t12.5 -281.5t16 -305q264 262 624 790q27 47 55 47q23 0 43.5 -27.5t20.5 -53.5q0 -43 -35 -89q-137 -182 -203.5 -268t-186.5 -227t-230 -252q70 -45 233.5 -131 t255.5 -152q35 -16 35 -65q0 -35 -17.5 -63.5t-41.5 -28.5q-16 0 -29 12q-297 233 -514 350q6 -375 6 -383q0 -23 -27.5 -38t-56.5 -15q-41 0 -41 31q0 154 -31 514q-35 47 -43 65z" />
<glyph unicode="&#x41b;" horiz-adv-x="1294" d="M184 49q0 12 6 29q145 567 146 1036q0 121 -8 219q0 27 18.5 60.5t44.5 33.5q12 0 27 -14q117 -133 220 -306t167.5 -317.5t155 -338t163.5 -324.5q6 -16 6 -33q0 -35 -19 -65.5t-41.5 -30.5t-37.5 33q-90 152 -269 546t-312 580q-8 -528 -154 -1141q-14 -41 -47 -41 q-25 0 -45.5 22.5t-20.5 51.5z" />
<glyph unicode="&#x41c;" horiz-adv-x="1988" d="M164 133q0 164 115.5 530.5t115.5 532.5q0 82 -18 152q0 29 26.5 47t59.5 18q53 0 53 -53l-4 -25q80 -68 152.5 -166t117.5 -176t119 -219q147 -326 254 -495q6 53 22.5 242.5t30 274.5t57.5 224t113 248q47 27 86 26q86 0 135.5 -153.5t64.5 -351t54 -421t107 -325.5 q0 -27 -22.5 -42t-53.5 -15q-66 0 -80 51q-106 365 -231 1104q-70 -117 -107 -396q-66 -535 -76 -602q-20 -76 -98 -75q-47 0 -113.5 90t-114.5 190.5t-102.5 224t-64.5 142.5q-12 23 -41 76t-42 78.5t-40 71.5t-46.5 76t-45 66.5t-51.5 67.5q0 -281 -60 -498 q-8 -31 -46 -152.5t-53 -200.5t-15 -157q0 -20 7 -62t7 -65q0 -33 -34 -58.5t-69 -25.5q-33 0 -40 27q-29 86 -29 174z" />
<glyph unicode="&#x41d;" horiz-adv-x="1564" d="M266 1403q0 27 23.5 46t50.5 19q43 0 43 -49q0 -147 27.5 -416.5t33.5 -365.5q47 10 113 10q51 0 154.5 -9t152.5 -9q100 0 176 24q-4 45 -13 169t-15 187.5t-21.5 161t-36.5 175.5q0 2 -1 6t-1 6q0 27 21.5 42t48.5 15q70 0 82 -55q37 -158 54.5 -422t52 -496.5 t124.5 -412.5q4 -12 4 -21q0 -25 -22.5 -40t-52.5 -15q-45 0 -62 31q-109 211 -149 553q-80 -18 -181 -19q-53 0 -156.5 7t-152.5 7q-37 0 -114 -8q0 -291 -37 -467q0 -29 -23.5 -49t-52.5 -20q-49 0 -55 55q35 244 34 485q-18 18 -18 41q0 20 16 37q-2 45 -24.5 342 t-22.5 455z" />
<glyph unicode="&#x41e;" horiz-adv-x="1552" d="M143 653q0 162 70 332t212 295t320 125q51 0 95 -8q12 4 73 4q236 -41 366 -244t130 -459q0 -291 -163 -490.5t-451 -199.5q-283 0 -467.5 178t-184.5 467zM254 702q0 -236 175 -406.5t417 -170.5q143 0 251.5 84t160 212t51.5 275q0 205 -101.5 368t-289.5 206 q-16 -16 -37 -17q-25 0 -76 14.5t-80 14.5q-199 0 -335 -184.5t-136 -395.5z" />
<glyph unicode="&#x41f;" horiz-adv-x="1464" d="M225 1372q0 29 12.5 51.5t32.5 22.5q53 12 58 12q61 0 196 -17.5t201 -17.5q147 0 254 33q2 20 17.5 33.5t33.5 13.5q25 0 41 -31.5t16 -62.5q0 -29 -10 -43q18 -147 29.5 -400t35 -467t77.5 -390q20 -18 20 -47t-17.5 -52.5t-39.5 -23.5q-49 0 -84 92t-49.5 227 t-19.5 225.5t-5 145.5q-39 401 -45 639q-109 -29 -244 -29q-66 0 -192.5 9.5t-147.5 11.5q8 -98 8 -301q4 -53 23.5 -244t19.5 -295q0 -258 -96 -424q-18 -39 -45 -39q-16 0 -30.5 16.5t-14.5 36.5q0 35 39 148.5t39 236.5q0 90 -13.5 270.5t-13.5 276.5q0 211 -26 322 q-60 0 -60 61z" />
<glyph unicode="&#x420;" horiz-adv-x="1064" d="M246 37q0 215 33.5 658.5t33.5 672.5q0 25 24.5 43.5t51.5 18.5t29 -19q221 0 352 -97t131 -317q0 -475 -514 -495q0 -39 -20.5 -170t-20.5 -193q0 -25 4 -57v-10q0 -25 -20.5 -44.5t-44.5 -19.5q-27 0 -39 29zM395 594q16 -2 45 -2q160 0 256.5 118.5t96.5 286.5 q0 137 -75 232.5t-210 95.5q-41 0 -88 -10q-9 -524 -25 -721z" />
<glyph unicode="&#x421;" horiz-adv-x="1169" d="M102 674q0 139 25 265t80 246t163.5 191.5t260.5 71.5q74 0 162 -41t88 -109q0 -25 -12.5 -42t-28.5 -17q-10 0 -33 21.5t-60.5 42t-87.5 20.5q-442 0 -464 -690q18 -221 198 -357.5t416 -136.5q39 0 114.5 20.5t110.5 20.5q23 0 38 -21.5t15 -45.5q0 -39 -32 -52 q-113 -53 -240 -53q-279 0 -496 190.5t-217 475.5z" />
<glyph unicode="&#x422;" horiz-adv-x="1206" d="M41 1294q0 29 19.5 57.5t43.5 28.5h160q164 0 254 -4v92q0 27 24.5 43.5t55.5 16.5q45 0 45 -37q-2 -41 -2 -119q111 -4 170 -4q53 0 157.5 13.5t155.5 13.5q41 0 41 -45q0 -23 -14 -44.5t-39 -25.5q-156 -31 -352 -31q-20 0 -59 2t-58 2q6 -121 38 -409.5t32 -444.5 q0 -186 -35 -348q-4 -23 -23.5 -37t-44.5 -14q-43 0 -43 41q33 176 33 344q0 164 -36 465t-42 405l-258 7q-86 0 -190 -7q-33 0 -33 39z" />
<glyph unicode="&#x423;" horiz-adv-x="1200" d="M123 1343q0 29 24.5 56.5t47.5 27.5q14 0 22 -14q51 -100 70.5 -137t71 -125t88 -133t92 -107.5t116 -102.5t129.5 -69q94 326 95 662q0 29 22.5 49t48.5 20q39 0 45 -45q0 -381 -194 -972q-141 -426 -482 -494q-59 0 -59 43q0 25 17.5 47.5t41.5 26.5q74 14 134.5 49 t97.5 73t72.5 107.5t53 113.5t46.5 128l25 69q-111 45 -205 121t-171 177.5t-131.5 193.5t-113.5 215q-4 6 -4 20z" />
<glyph unicode="&#x424;" horiz-adv-x="1476" d="M164 799q0 168 97 311t261 197v123q0 20 22.5 34.5t49.5 14.5q43 0 43 -35v-119q143 -70 293.5 -199t266.5 -306t116 -333q0 -125 -77 -225t-208 -100q-104 0 -276 53q2 -51 21.5 -148.5t19.5 -142.5q0 -20 -21.5 -33.5t-46.5 -13.5q-33 0 -39 31q-39 125 -59 352 q-227 68 -345 210.5t-118 328.5zM270 791q0 -262 344 -410q-78 678 -92 838q-115 -96 -183.5 -195.5t-68.5 -232.5zM643 1210q4 -100 16.5 -222t22.5 -204t30.5 -232.5t28.5 -215.5q168 -57 269 -57q109 0 159 50t50 160q0 100 -60.5 215t-155 211.5t-186.5 171t-174 123.5z " />
<glyph unicode="&#x425;" horiz-adv-x="1294" d="M82 1343.5q0 28.5 19.5 49t54.5 20.5q135 -51 225 -227q86 -137 215 -291q2 -4 12 -14q86 389 123 487q10 27 57 27q78 0 78 -58q-20 -72 -86.5 -261t-87.5 -285q205 -209 512 -707q8 -18 8 -37q0 -47 -59 -47q-31 0 -57.5 13.5t-34.5 33.5q-45 70 -118 203t-139.5 236.5 t-139.5 181.5q-82 -383 -197 -731q-8 -29 -53 -29q-37 0 -69 17.5t-32 39.5q0 10 2 15q25 74 83.5 236.5t94 279t64.5 243.5q-78 92 -156.5 202t-142 185.5t-158.5 159.5q-18 29 -18 57.5z" />
<glyph unicode="&#x426;" horiz-adv-x="1378" d="M205 795v442q0 20 23.5 33.5t52.5 13.5q63 0 63 -47q0 -139 -11 -416.5t-11 -417.5q0 -176 10 -301q178 0 672 39q-10 104 -23.5 317.5t-33 381.5t-56.5 311q-35 133 -35 240q0 29 24.5 48t53.5 19q43 0 49 -45q-6 -37 -6 -70q0 -41 18 -184q33 -145 50.5 -314t31 -379 t27.5 -341q131 0 131 -70q0 -55 -63.5 -123.5t-171 -149.5t-119.5 -91q-20 -18 -52 -19q-53 0 -53 37q0 16 21 35q14 14 139 114.5t172 172.5q-25 -2 -46.5 -4t-29.5 -3t-14 -1h-10q-479 -41 -742 -41q-45 27 -45 65q-16 279 -16 748z" />
<glyph unicode="&#x427;" horiz-adv-x="1101" d="M246 1395q0 33 41 32q23 0 41 -12t18 -33q12 -109 12 -458q0 -166 15 -277q33 -27 98 -26q37 0 124 13t134 13q-2 61 -16.5 219t-14.5 244q0 147 33 264q6 25 49 25q63 0 64 -35q0 -33 -8.5 -107.5t-8.5 -121.5q0 -102 14.5 -305t14.5 -304q0 -301 -94 -512 q-6 -33 -53 -32q-23 0 -41.5 10t-18.5 28q0 53 35 236.5t37 282.5q-57 0 -155.5 -17.5t-143.5 -17.5q-72 0 -118 35.5t-46 99.5q0 57 3 186t3 207q0 203 -18 363z" />
<glyph unicode="&#x428;" horiz-adv-x="1368" d="M205 1350q0 18 27.5 35.5t56.5 17.5q18 0 28 -8q25 -111 51.5 -326t32.5 -260q6 -70 31 -301.5t31 -378.5q55 0 132 -11.5t99 -13.5q-12 82 -21 272.5t-34 305.5q-6 25 -35 159t-39 186t-22.5 151.5t-12.5 181.5q0 23 20.5 38t43.5 15q35 0 41 -31q4 -82 17.5 -180 t23.5 -156.5t34.5 -186.5t30.5 -167q18 -100 44 -297.5t46 -300.5q31 0 73 6t61 6q10 43 10 107q0 567 -160 1190q0 23 19.5 35t46.5 12q51 0 63 -35q61 -82 119.5 -666.5t58.5 -717.5q0 -55 -116 -56q-102 0 -311.5 18.5t-321.5 18.5q-25 0 -43.5 12.5t-18.5 27t10.5 56.5 t10.5 68q0 61 -7.5 147.5t-16.5 151t-22.5 163.5t-19.5 140q-8 59 -23 260t-38 312z" />
<glyph unicode="&#x429;" horiz-adv-x="1335" d="M205 1399q0 35 47 35q41 0 47 -27q72 -600 76 -1282q61 4 96 4q53 0 161.5 -6t164 -6t82.5 2q2 45 2 131q0 209 -36 596t-42 534q0 35 61 35q63 0 70 -35q2 -59 25.5 -443t23.5 -599q0 -131 -10 -211q98 4 151 8q47 0 47 -59q0 -33 -16 -51q0 -39 -2 -117t-2 -121v-43 q0 -16 -18.5 -31.5t-36.5 -15.5q-23 0 -29 27q0 35 -3 106.5t-3 108.5q0 16 1 34.5t3 40t2 33.5q-74 -41 -262 -41q-121 0 -306.5 4t-193.5 4q-31 0 -49 23.5t-18 52.5q0 8 22 82q-4 795 -55 1227zM551 1188q0 96 10 225q2 33 55 33q57 0 58 -47q0 -250 3 -402.5t21.5 -377 t55.5 -404.5q0 -33 -51.5 -33t-57.5 39q-6 61 -50 414.5t-44 552.5z" />
<glyph unicode="&#x42a;" horiz-adv-x="1255" d="M82 1307q0 35 37 57t78 28.5t88 6.5q25 0 78 -2t79 -2q55 0 82 4q55 0 56 -45q0 -6 -5 -23q-57 -172 -57 -446q209 -4 412 -166t203 -369q0 -133 -87.5 -226t-212 -131t-270.5 -38q-162 0 -399 33q-33 0 -33 32q0 23 21.5 41.5t64.5 20.5q154 -23 248 -31 q-45 387 -66 705q-23 0 -39 13t-16 32q0 35 51 59q0 252 51 416q-27 0 -80 1t-79 1q-98 0 -162 -12q-43 0 -43 41zM520 782q0 -31 4 -88l25 -282q20 -236 24 -365q424 0 424 283q0 164 -147.5 300t-329.5 152z" />
<glyph unicode="&#x42b;" horiz-adv-x="1458" d="M164 801q0 37 35 57q57 33 127 37q18 485 18 487q0 39 51 39q27 0 49.5 -14t22.5 -37q0 -92 -9 -270t-12 -215q158 -37 291 -163t133 -282q0 -111 -140 -283.5t-259 -172.5q-57 0 -65 36q-90 227 -91 588q0 4 1 19.5t2 55.5t1 101q-20 0 -57 -15t-57 -15q-41 0 -41 47z M438 571q0 -268 54 -467q18 16 82.5 63.5t95 76t61.5 81t31 109.5q0 186 -320 328q-4 -68 -4 -191zM954 1358q0 23 25 46t47 23q25 0 25 -32q0 -82 13 -176.5t27.5 -159t42 -175t37.5 -159.5q23 -76 41.5 -168t28.5 -155.5t27.5 -175t25.5 -163.5q0 -23 -21.5 -44t-43.5 -21 q-27 0 -33 33q-72 434 -123 659q-8 39 -35.5 158t-39 177t-26 154.5t-18.5 178.5z" />
<glyph unicode="&#x42c;" horiz-adv-x="1148" d="M205 199q0 49 9 104t25.5 127t22.5 109q10 51 52 253.5t59.5 331.5t17.5 262v52q0 37 51 37q27 0 49.5 -14.5t22.5 -39.5q0 -203 -61 -540q16 2 49 2q178 0 310 -125t132 -305q0 -209 -173 -337t-398 -128q-160 0 -160 65q0 25 -4 73t-4 73zM324 166q0 -31 6 -55 q14 -2 45 -2q111 0 217 36.5t185 117.5t79 190q0 131 -107.5 223t-242.5 92q-43 0 -76 -8z" />
<glyph unicode="&#x42d;" horiz-adv-x="1150" d="M102 1274q0 47 33 63q113 59 238 60q262 0 428 -204t166 -472q0 -49 -17 -66q-14 -121 -59 -239.5t-115.5 -221t-178.5 -166t-232 -63.5q-119 0 -119 58q0 27 17.5 49t39.5 22q41 -6 76 -6q195 0 315.5 160t145.5 377q-70 -6 -135 -7q-55 0 -169 5.5t-178 5.5 q-25 0 -41 19.5t-16 41.5q0 43 49 43q59 0 177 -8t178 -8q84 0 143 10q6 37 6 74q0 193 -158.5 339t-353.5 146q-37 0 -107.5 -26.5t-103.5 -26.5q-29 0 -29 41z" />
<glyph unicode="&#x42e;" horiz-adv-x="1728" d="M225 49q0 33 15.5 76t34 90t34 169t15.5 296q0 102 -43 307t-43 301q0 23 15 38t36 15q27 0 33 -34q68 -350 86 -535q98 16 180 16q57 0 119 -6q6 10 15 133t31.5 234t61.5 111q-16 0 -50 -20.5t-50 -20.5q-20 0 -35 24q0 39 33 72q133 106 264 106q160 0 299 -144 t214 -343t75 -379q0 -199 -148.5 -364.5t-355.5 -165.5q-76 0 -134.5 29.5t-94 86t-59 115.5t-36 141t-16.5 140.5t-6 134.5q-158 14 -199 14q-59 0 -102 -8q12 -123 12 -189q0 -213 -82 -456q-14 -39 -53 -39q-25 0 -45.5 16t-20.5 39zM805 537q0 -176 101.5 -287 t234.5 -111q113 0 199.5 90t109.5 267q0 74 -12.5 168t-43 209.5t-75.5 209t-121 158t-168 64.5q-59 0 -102 -50.5t-66.5 -143.5t-34 -168t-18.5 -179q43 -6 56.5 -15.5t13.5 -25.5q0 -29 -19.5 -59.5t-42.5 -30.5q-12 -41 -12 -96z" />
<glyph unicode="&#x42f;" horiz-adv-x="1277" d="M123 61q0 18 10 33q39 57 162 180t174 156q100 82 340 238q-375 53 -375 295q0 160 146.5 281.5t306.5 121.5q23 0 59.5 -6t54.5 -6q51 0 52 -125q0 -162 -45 -465q-57 -358 -58 -518q0 -119 21 -240q0 -43 -58 -43q-51 0 -57 39q-20 111 -20 234q0 137 28 331 q-244 -156 -313 -205q-31 -23 -64.5 -52t-56 -50.5t-63.5 -64.5t-52.5 -56.5t-59.5 -67t-52 -57.5q-12 -18 -31 -18q-20 0 -34.5 20t-14.5 45zM524 948q0 -59 79 -104t159 -61.5t131 -16.5q45 305 45 477q-25 6 -53 6q-119 0 -240 -95t-121 -206z" />
<glyph unicode="&#x430;" horiz-adv-x="1163" d="M225 35q33 207 60 520q-55 12 -56 53q0 45 64 49q39 461 92 707q6 31 27.5 53.5t48.5 22.5q23 0 37 -17q119 -109 177 -282.5t111 -499.5q18 -2 31.5 -19.5t13.5 -35.5q0 -33 -32 -41q4 -39 10 -108.5t11 -101.5t16.5 -76t32 -72.5t53.5 -53.5q16 -14 16 -31 q0 -27 -29.5 -53t-58.5 -26q-16 0 -27 10q-39 35 -66.5 78t-42 106.5t-20.5 98t-13 118.5t-9 103q-39 -4 -111 -5q-12 0 -35.5 4.5t-33.5 4.5h-84q-39 -342 -68 -480q0 -27 -23.5 -46t-50.5 -19q-41 0 -41 39zM418 639q68 -8 160 -8q12 0 38.5 1t40.5 1q-41 240 -75.5 366.5 t-98.5 221.5q-12 -82 -65 -582z" />
<glyph unicode="&#x431;" horiz-adv-x="1302" d="M225 1434q0 31 24.5 49t55.5 18q61 0 62 -65q143 31 260 30q190 0 356 -65q23 -10 36 -38t13 -56q0 -51 -41 -52l-65 15q-63 12 -149.5 24.5t-137.5 12.5q-145 0 -262 -27q10 -184 26 -334q72 33 154 33q207 0 384 -182.5t177 -393.5q0 -170 -128 -273t-310 -103 q-109 0 -207 30q-20 -49 -86 -49q-68 0 -68 53q0 8 -1 24.5t-3 24t-8 20.5t-18 26q-23 23 -23 55q0 49 41 88q-8 129 -30.5 357.5t-37 419t-14.5 358.5zM420 795q37 -352 51 -576q68 -25 211 -33q119 0 218 61.5t99 176.5q0 131 -147 261t-287 136q-14 -2 -46 -3t-58.5 -6 t-40.5 -17z" />
<glyph unicode="&#x432;" horiz-adv-x="1273" d="M246 160q0 645 61 1143q0 51 92.5 82.5t159.5 31.5q125 0 202 -91t81 -222q-8 -152 -111 -254q135 -51 216 -177t81 -274q0 -197 -113.5 -335t-318.5 -138q-82 0 -152 23q-41 6 -41 35q0 33 35 53t68 16q59 -18 108 -18q131 0 194.5 109.5t63.5 261t-100 252t-242 100.5 q-63 0 -131 -25q-2 -51 -8 -250.5t-6 -306.5q0 -33 -26.5 -53.5t-57.5 -20.5q-23 0 -39 15.5t-16 42.5zM406 860q29 -6 63 -6q96 0 157.5 60.5t61.5 172.5q0 80 -43 138.5t-123 58.5q-49 0 -94 -22q-22 -166 -22 -402z" />
<glyph unicode="&#x433;" horiz-adv-x="1189" d="M184 1270q0 33 26 65.5t60 32.5h45q0 31 27 53.5t61 22.5q70 0 70 -82q25 -10 188.5 -13t305 -16.5t141.5 -52.5q0 -33 -26.5 -66.5t-61.5 -33.5q-82 0 -168 5t-213 16t-172 16q2 -156 32.5 -473.5t30.5 -481.5q0 -92 -10 -209q-6 -29 -34.5 -45t-61.5 -16q-59 0 -59 37 q0 31 6 101.5t6 113.5q0 166 -33 491.5t-33 489.5q-29 2 -86 2q-41 0 -41 43z" />
<glyph unicode="&#x434;" horiz-adv-x="1585" d="M-41 55q0 35 22.5 67t57.5 40q141 16 240 16q111 0 241 -16q-53 168 -53 393q0 106 16.5 324.5t16.5 328.5q0 106 58 168t177 62q51 0 137 -6.5t204 -19.5t200 -45t82 -75q0 -45 -50.5 -203.5t-99.5 -379t-49 -410.5q0 -35 1 -106.5t1 -110.5q45 -4 129 -7t155 -9.5 t134 -20.5q47 -8 47 -39q0 -37 -38 -58.5t-83 -21.5q-158 0 -604 44t-661 44q-94 0 -217 -10h-13q-51 0 -51 51zM598 670q0 -313 80 -531q276 -43 354 -49q-14 100 -14 215q0 375 166 897q-41 6 -123 21.5t-122 21.5t-98.5 12.5t-109.5 6.5q-27 0 -92 -4q-41 -395 -41 -590z " />
<glyph unicode="&#x435;" horiz-adv-x="1228" d="M246 1354q0 31 24.5 56.5t55.5 25.5q20 0 30 -9q98 -12 297 -18t301 -20q39 -8 39 -37t-31.5 -56.5t-68.5 -27.5q-10 0 -14 2q-66 16 -143 21t-177 6t-151 6q41 -283 41 -474q16 8 77 9q182 0 336 -35q63 -12 64 -62q0 -18 -13.5 -32.5t-33.5 -14.5q-43 0 -135.5 12.5 t-145.5 12.5q-74 0 -125 -12q-31 -6 -66.5 -206t-35.5 -372q55 6 177 23.5t218 26.5t182 9q100 0 187 -14q53 -10 53 -55q0 -23 -15.5 -40.5t-39.5 -17.5q-29 0 -92.5 10.5t-100.5 10.5q-92 0 -294 -45t-314 -45q-33 0 -52.5 20.5t-19.5 55.5q0 20 6 69t6 74q0 90 31 260 t37 244q0 217 -53 598q-41 2 -41 41z" />
<glyph unicode="&#x436;" horiz-adv-x="1435" d="M82 27q0 18 18 43q90 127 256 419.5t246 411.5q-37 31 -164 139.5t-194 167.5q-25 14 -25 37q0 27 32 51.5t66 24.5q27 0 43 -14q53 -47 158 -135.5t148 -127.5q0 68 -25 203t-25 203q0 39 29 72.5t57 33.5q33 0 48 -40q33 -170 38 -394q215 246 254 297q33 35 82 35 q63 0 64 -43q0 -16 -19 -41q-47 -70 -111.5 -143.5t-143 -157.5t-119.5 -133q393 -356 553 -655q6 -12 6 -25q0 -33 -34 -57.5t-68.5 -24.5t-49.5 27q-133 266 -422 540q-20 -440 -20 -528q0 -104 6 -209q0 -39 -26.5 -67.5t-55.5 -28.5q-55 0 -55 137q0 195 33 711 q-201 -403 -449 -752q-23 -29 -63 -29q-29 0 -48.5 14.5t-19.5 37.5z" />
<glyph unicode="&#x437;" horiz-adv-x="1280" d="M41 338q0 51 20.5 81t47.5 30q39 0 41 -50q27 -131 149.5 -204.5t269.5 -73.5q123 0 246 69.5t123 186.5q0 106 -94 223t-203 117q-31 0 -55 -8q-51 45 -51 90q0 41 50 89t109.5 84t109.5 90t50 107q0 59 -40 109.5t-101 54.5q-96 -25 -127 -123q-14 -43 -66 -43 q-37 0 -59.5 25t-26.5 65q37 86 119 136.5t172 50.5q111 0 193.5 -84t82.5 -201q0 -63 -43 -123.5t-88 -94.5t-129 -87q127 -49 220.5 -184t93.5 -277q0 -186 -147.5 -301t-344.5 -115q-125 0 -234.5 39t-190.5 123t-97 199z" />
<glyph unicode="&#x438;" horiz-adv-x="1177" d="M225 1300q0 29 30 63t56.5 34t32.5 -39q51 -244 51 -500q0 -268 -26 -520q102 311 170 459q170 313 221 475v74q0 23 43 59.5t67 36.5q57 0 57.5 -137.5t-18 -410.5t-18.5 -407q0 -162 30.5 -298t30.5 -146q0 -27 -25.5 -47.5t-56.5 -20.5q-125 0 -125 662q0 205 13 344 q-195 -418 -236 -571q-12 -25 -38.5 -137.5t-65.5 -189.5t-99 -77q-78 0 -77 303q39 328 39 537q-1 243 -56 454z" />
<glyph unicode="&#x439;" horiz-adv-x="1265" d="M225 63q31 186 31 416q0 141 -15.5 421t-15.5 415q0 74 41 96q25 0 46.5 -13.5t21.5 -39.5q0 -121 16.5 -411t16.5 -480q18 51 150 365.5t171 496.5q8 41 38 62.5t65 21.5q33 0 56 -18.5t23 -48.5q0 -25 -32.5 -95.5t-32.5 -113.5q0 -90 13 -158t50 -170t50 -147 q18 -66 43.5 -198t56.5 -236.5t80 -188.5q4 -6 4 -23q0 -29 -24.5 -56.5t-51.5 -27.5q-25 0 -39 23q-63 119 -118.5 369.5t-69.5 298.5q-68 221 -94 358q-12 -45 -84 -221q-8 -18 -66.5 -233.5t-129.5 -373t-144 -157.5q-56 -1 -56 67zM401 1630q0 27 13.5 47.5t36.5 20.5 q244 61 249 61q23 0 36.5 -21.5t13.5 -49.5q0 -59 -64 -72q-158 -37 -235 -43q-50 0 -50 57z" />
<glyph unicode="&#x43a;" horiz-adv-x="1259" d="M225 432q0 133 21.5 398.5t21.5 396.5q0 100 -8 198q0 47 53 48q29 0 50.5 -16.5t21.5 -41.5q14 -113 14 -237q0 -135 -12 -271q86 41 178 123t199.5 193.5t167.5 165.5q16 8 37 8q47 0 47 -51q0 -37 -29 -58q-59 -41 -120.5 -99.5t-131 -131t-110.5 -111.5 q49 -57 94 -117.5t90 -136.5t75.5 -128t78 -147l68 -136t72.5 -153t66 -140q8 -20 9 -37q0 -25 -24 -48.5t-50 -23.5q-25 0 -33 27q-27 55 -88 190t-99 212t-97.5 187.5t-123 201.5t-135.5 171q-66 -51 -149 -86q-16 -301 -17 -338q0 -201 39 -381q0 -43 -61 -43 q-29 0 -52.5 13.5t-27.5 38.5q-35 157 -35 360z" />
<glyph unicode="&#x43b;" horiz-adv-x="1216" d="M143 43q0 4 4 16q195 864 453 1332q4 4 16.5 29.5t25.5 41t32 15.5q27 0 41 -31q100 -258 200.5 -761t153.5 -683q4 -8 4 -25q0 -27 -18.5 -48t-40.5 -21q-33 0 -43 39q-66 209 -149 643t-150 645q-90 -170 -170 -391t-118 -360.5t-108 -411.5q-6 -27 -33.5 -43.5 t-56.5 -16.5q-43 0 -43 31z" />
<glyph unicode="&#x43c;" horiz-adv-x="1581" d="M205 229q0 272 33 527q47 346 122 592q0 33 30 66.5t61 33.5q43 0 43 -43q74 -145 111.5 -340t69.5 -399.5t87 -346.5q41 135 106.5 468t128.5 507q-2 6 -2 17q0 35 28 72.5t58 37.5q47 0 86 -195.5t64.5 -432t72 -443.5t103.5 -225q10 -10 10 -23q0 -25 -29.5 -44 t-62.5 -19q-29 0 -43 14q-66 117 -103.5 279t-72.5 367.5t-76 344.5q-14 -53 -80.5 -377.5t-130.5 -482.5q-33 -82 -76 -82q-31 0 -43 35q-96 182 -160.5 547t-103.5 481q-45 -209 -74 -424q-33 -250 -32 -479q0 -33 4 -96.5t4 -93.5q0 -25 -28.5 -47.5t-57.5 -22.5 q-37 0 -43 39q-4 63 -4 188z" />
<glyph unicode="&#x43d;" horiz-adv-x="1210" d="M225 426q0 113 17.5 338t17.5 340q0 47 -12 143t-12 146q0 23 35.5 40t60.5 17q35 0 45 -47q23 -147 22 -281q0 -88 -12 -252q219 -23 412 -28q10 164 10 291q0 43 -6 129t-6 129q0 23 24.5 38t55.5 15q74 0 79 -41q10 -96 11 -236q0 -119 -11.5 -357.5t-11.5 -358.5 q0 -270 41 -457q0 -29 -35 -48.5t-69 -19.5q-47 0 -54 37q-41 188 -41 459q0 106 9 323q-266 0 -416 27q-18 -203 -19 -336q0 -197 41 -346q4 -16 5 -27q0 -31 -17.5 -54t-40.5 -23q-16 0 -41.5 9t-27.5 25q-54 177 -54 406z" />
<glyph unicode="&#x43e;" horiz-adv-x="1132" d="M143 727q0 100 23.5 216t68 226.5t120 183t167.5 72.5q41 0 72 -43h14q106 -4 186 -93t120 -224t57.5 -259t17.5 -235q0 -569 -397 -569q-139 0 -243.5 106.5t-155 269.5t-50.5 349zM274 741q0 -78 13.5 -172t43 -200.5t90 -184.5t140.5 -92q297 47 297 490q0 123 -7 209 t-30.5 190t-79 180t-141.5 119q-6 0 -20.5 -4t-24.5 -4q-23 0 -47 20q-234 -125 -234 -551z" />
<glyph unicode="&#x43f;" horiz-adv-x="1280" d="M225 1315q0 29 23.5 55.5t56.5 26.5q342 0 694 41q55 0 56 -64q0 -47 -31 -65v-2l2 -4q-4 -127 -36 -420t-32 -451q0 -233 56 -430q0 -41 -72 -41q-57 0 -63 35q-53 180 -54 424q0 154 31 445.5t33 422.5q-250 -29 -533 -28q20 -203 21 -424q0 -129 -8.5 -386t-8.5 -384 q0 -33 -27.5 -55.5t-58.5 -22.5q-37 0 -36 35q0 131 7 395t7 393q0 289 -27 504z" />
<glyph unicode="&#x440;" horiz-adv-x="1214" d="M205 1436q0 41 49 41q72 0 106 -4q6 14 28 25t36 11q35 0 49 -45q223 -31 390 -183.5t167 -377.5q0 -125 -85 -197.5t-226 -72.5q-27 0 -89.5 2t-97.5 2q-45 0 -90 -6q-10 -137 -10 -242q0 -186 31 -356q4 -16 4 -23q0 -41 -45 -41q-25 0 -49.5 13.5t-28.5 40.5 q-29 143 -29 313q0 162 17 319q-16 12 -17 31q0 16 21 29q35 352 35 495q0 94 -4 142q-8 0 -36 8t-50 8q-33 0 -54.5 20.5t-21.5 47.5zM453 735q47 6 94 6q25 0 81 -2t89 -2q92 0 136 46t44 122q0 168 -117.5 293t-296.5 156q2 -37 2 -109q1 -121 -32 -510z" />
<glyph unicode="&#x441;" horiz-adv-x="1189" d="M123 674q0 139 24.5 265t80 246t164 191.5t259.5 71.5q74 0 162 -41t88 -109q0 -25 -12 -42t-29 -17q-10 0 -32.5 21.5t-60.5 42t-87 20.5q-442 0 -465 -690q18 -221 198.5 -357.5t415.5 -136.5q39 0 115 20.5t111 20.5q23 0 38 -21.5t15 -45.5q0 -39 -33 -52 q-113 -53 -239 -53q-279 0 -496 190.5t-217 475.5z" />
<glyph unicode="&#x442;" horiz-adv-x="1245" d="M41 1319q0 49 65 76q92 20 224 20q102 0 306 -21.5t306 -21.5q117 0 232 23q31 0 30 -31q0 -25 -16.5 -51.5t-36.5 -30.5q-92 -18 -213 -18q-100 0 -305 20q-4 -45 -4 -67q0 -135 22.5 -405.5t22.5 -424.5q0 -188 -25 -338q-10 -47 -71 -47q-55 0 -56 39q25 121 25 289 q0 137 -21.5 438t-21.5 446q0 55 6 82q-123 8 -186 9q-127 0 -230 -23q-23 0 -38 10.5t-15 26.5z" />
<glyph unicode="&#x443;" horiz-adv-x="1046" d="M102 1378q0 23 26 41.5t54 18.5q27 0 41 -19q59 -84 177 -271t184 -278q156 438 190 574q18 35 70 35q59 0 59 -47q0 -90 -34.5 -208t-93 -268.5t-77.5 -210.5q-14 -43 -71.5 -184t-95 -261t-37.5 -204q0 -37 6 -86q0 -23 -19.5 -35t-44.5 -12q-80 0 -80 133q0 88 85 289 t85 283q0 57 -26 98q-18 27 -159.5 253t-229.5 337q-9 10 -9 22z" />
<glyph unicode="&#x444;" horiz-adv-x="1474" d="M82 831.5q0 178.5 163 289t363 124.5q-4 111 -4 168q0 35 47 35q25 0 44.5 -12.5t19.5 -34.5q0 -92 6 -184q213 -10 356 -91q137 -53 206 -148t69 -206q0 -152 -114 -269.5t-286 -117.5q-70 0 -149 25q4 -45 4 -134q0 -135 -14 -251q-8 -35 -56 -35q-55 0 -55 47 q14 117 14 252q0 88 -4 133q-158 20 -309 90q-301 141 -301 319.5zM164 850q0 -170 375 -272q82 -29 143 -39q-8 94 -30.5 283.5t-30.5 283.5q-182 0 -300 -54.5t-157 -201.5zM731 1104q8 -90 30.5 -284.5t31.5 -297.5q104 -6 127 -6q315 0 315 199q0 139 -82 225 q-158 139 -422 164z" />
<glyph unicode="&#x445;" horiz-adv-x="1214" d="M143 1339q0 29 27 53.5t51 24.5q14 0 23 -8q184 -184 368 -471q37 72 77 208t79 206.5t104 70.5q27 0 47.5 -14t20.5 -39q0 -18 -10 -33q-55 -63 -92 -139t-78 -196.5t-60 -163.5q25 -51 161 -300t200 -403q10 -18 10 -35q0 -27 -25.5 -41t-58.5 -14q-55 0 -67 27 q-102 258 -304 600q-225 -408 -327 -766q-18 -39 -82 -39q-51 0 -51 37q0 10 2 16q96 299 391 897q-176 281 -399 498q-7 12 -7 24z" />
<glyph unicode="&#x446;" horiz-adv-x="1484" d="M225 748q0 369 64 632q6 37 51 37q27 0 47.5 -14t20.5 -37q-49 -244 -50 -537q0 -106 5.5 -215.5t16.5 -272.5t15 -214q59 0 190.5 2t209.5 2q139 0 233 -12q0 166 28.5 504t28.5 510q0 117 -8 213q0 29 20.5 50t43.5 21q29 0 35 -37q8 -90 8 -204q0 -186 -34 -537.5 t-36 -513.5q248 -39 248 -131q0 -33 -32 -77t-60.5 -71.5t-88 -76t-67.5 -54.5q-16 -14 -43 -14q-25 0 -43 12.5t-18 28.5q0 10 4 16t14 13.5t14 11.5q190 145 191 182q0 12 -9.5 22.5t-26.5 15.5t-32.5 8t-36 6t-26.5 6q-14 -14 -25 -17q-23 0 -37 14q-100 20 -245 21 q-68 0 -202 -6t-200 -6q-129 0 -129 63q8 33 8 76q0 96 -23.5 288t-23.5 292z" />
<glyph unicode="&#x447;" horiz-adv-x="1327" d="M205 1372q0 33 21.5 55.5t43.5 22.5q31 0 37 -37q25 -150 25 -403q0 -362 280 -363q115 0 262 64q6 74 7 145q0 61 -5.5 190.5t-5.5 200.5q0 102 9 191q10 37 61 37q39 0 39 -29q0 -23 -4 -79t-4 -93q0 -86 9 -197.5t9 -202.5q0 -76 -5 -231.5t-5 -234.5q0 -186 20 -324 q0 -25 -23.5 -40t-53.5 -15q-63 0 -64 121q0 80 7 252.5t7 191.5q-203 -57 -333 -57q-197 0 -258.5 132t-61.5 443q0 139 -14 260z" />
<glyph unicode="&#x448;" horiz-adv-x="1404" d="M225 174q0 90 21.5 263t25.5 241q31 516 58 717q6 20 26.5 34.5t40.5 14.5q29 0 29 -39q-61 -344 -61 -774q0 -49 -4.5 -150.5t-4.5 -152.5q0 -115 17 -207q143 0 268 -6q2 100 18.5 336.5t16.5 363.5q0 270 -58 479q0 23 17.5 43.5t38 20.5t28.5 -29q61 -213 62 -498 q0 -127 -15.5 -369.5t-17.5 -348.5h62q182 0 292 26q-109 473 -108 819q0 209 39 404q10 45 55 45q31 0 31 -33q0 -68 -20.5 -207t-20.5 -209q0 -156 59.5 -462t59.5 -390q0 -49 -37 -49q-90 -25 -198.5 -38t-187.5 -15t-210 -2t-197 -2q-12 -33 -45 -33q-31 0 -39 27 q-41 71 -41 180z" />
<glyph unicode="&#x449;" horiz-adv-x="1570" d="M225 1067q0 172 19 344q6 57 59 57q23 0 40 -15t19 -40q-16 -113 -16 -242q0 -180 30 -533t30 -534l239 -8q55 117 85 288t36 302t6 318q0 168 -22 313q0 25 17 43t38 18q31 0 37 -39q27 -172 26 -364q0 -541 -129 -883q160 -4 240 -4q96 0 145 2q-61 473 -61 793 q0 63 6 193t6 202q0 131 -49 180q-12 16 -12 29q0 18 19.5 31.5t43.5 13.5q33 0 58.5 -34t37 -86t16.5 -95t5 -78q0 -51 -7 -147.5t-7 -137.5q0 -403 53 -876q23 -4 70 -48t108 -44q37 0 37 -47q0 -68 -188.5 -181.5t-258.5 -113.5q-20 0 -35.5 23.5t-15.5 51.5q0 47 39 62 q41 20 144.5 54t160.5 79q-55 25 -129 84q-135 0 -441 11t-343 11q-16 -12 -29 -12q-16 0 -39.5 21.5t-23.5 40.5q0 25 28 32q-8 102 -50 441.5t-42 523.5z" />
<glyph unicode="&#x44a;" horiz-adv-x="1226" d="M0 1313q0 72 147 71q39 0 117 -3t117 -3q45 0 45 -59q0 -45 -8 -145.5t-8 -161.5q0 -143 10 -332q55 10 98 10q137 -8 258 -47t214 -126t93 -208q0 -61 -24.5 -110t-72.5 -82t-97 -56.5t-123 -39t-124 -24.5t-126 -18.5t-104 -13.5q-23 0 -40.5 23.5t-17.5 48.5 q0 82 -11 245.5t-13 252.5q-20 2 -34.5 22.5t-14.5 44.5q0 23 47 51l-4 60q-14 197 -15 334q0 117 13 229q-16 0 -47 2t-56.5 3t-48.5 1q-68 0 -123 -10q-47 0 -47 41zM426 578q4 -53 8 -153.5t11.5 -184.5t23.5 -158q29 10 128 24.5t183 31t154 62.5t70 117 q0 68 -52.5 121.5t-130.5 83t-152.5 45t-138.5 17.5q-71 0 -104 -6z" />
<glyph unicode="&#x44b;" horiz-adv-x="1544" d="M225 403q0 180 49.5 512t55.5 488q0 35 47 35q25 0 45 -12.5t20 -34.5q-4 -80 -67 -521q45 14 100 15q125 0 256 -74t220 -198t89 -255q0 -74 -36.5 -135t-84 -98t-133.5 -72t-141 -50t-154.5 -38.5t-130.5 -32.5q-78 0 -77 60q0 39 41 45q-99 137 -99 366zM348 485 q0 -270 107 -428q70 12 108.5 20.5t104 25t103.5 36t79 48t60.5 66.5t19.5 85q0 160 -145.5 300t-309.5 140q-63 0 -110 -22q-17 -169 -17 -271zM1073 1298q0 35 4 105q0 45 47 45q20 0 36 -14.5t16 -42.5q-4 -66 -5 -99q0 -182 74 -544.5t74 -550.5q0 -66 -6 -129 q-8 -45 -56 -45q-18 0 -32.5 12t-14.5 33q6 76 7 133q0 182 -72 544.5t-72 552.5z" />
<glyph unicode="&#x44c;" horiz-adv-x="1185" d="M225 47q0 23 22.5 41t61.5 23q2 88 2 262q0 172 -4 517t-4 523q0 27 25.5 45.5t54.5 18.5q41 0 41 -35q12 -618 12 -623q74 20 154 21q109 0 224.5 -45t202.5 -140.5t87 -214.5q0 -143 -95.5 -249.5t-227.5 -155.5t-273 -49q-31 0 -93.5 -1t-88.5 -1q-47 0 -74 19t-27 44 zM426 90q27 -4 80 -4q98 0 206.5 34t195.5 110.5t87 177.5q0 150 -139 241.5t-307 91.5q-57 0 -111 -12q0 -385 -12 -639z" />
<glyph unicode="&#x44d;" horiz-adv-x="1144" d="M41 1272q0 39 39 55q145 76 326 76q268 0 421.5 -205t153.5 -489q0 -135 -36 -263.5t-104.5 -236t-184 -173t-261.5 -65.5q-57 0 -125 11q-25 6 -24 32q0 61 67 62q41 -8 90 -8q121 0 211.5 54t141.5 146t76.5 198.5t29.5 229.5q-158 -25 -268 -24q-143 0 -270 43 q-23 8 -23 30q0 18 16.5 37t34.5 19q31 0 121 -17.5t135 -17.5q106 0 246 20q-14 111 -42 196t-77 165t-135 123t-201 43q-57 0 -171.5 -37t-155.5 -37q-31 0 -31 33z" />
<glyph unicode="&#x44e;" horiz-adv-x="1687" d="M225 1202q0 74 11 170q0 18 22.5 28.5t50.5 10.5q68 0 68 -41q-10 -84 -10 -201q0 -147 22 -376q68 41 213 41q0 16 -4 91.5t-4 118.5q0 96 22.5 185.5t90 162t167.5 72.5q115 0 195 -73q14 -12 14 -27q0 -20 -24.5 -39.5t-46.5 -19.5q-12 0 -19 6q-35 29 -82 28 q-57 0 -98 -37.5t-62.5 -92t-32.5 -146.5t-14.5 -166t-3.5 -186q0 -618 238 -619q113 0 204 127t132 280.5t41 278.5q0 242 -158 340q-18 10 -18 35q0 20 16 44t37 24q90 0 154.5 -84t90 -184.5t25.5 -192.5q0 -180 -67.5 -363.5t-187.5 -306.5t-255 -123q-162 0 -260 130 t-98 300q0 33 3 97.5t3 97.5q0 63 -8 113h-19q-90 0 -184 -46q16 -137 17 -245q0 -37 -2.5 -101.5t-2.5 -97.5q0 -96 13 -195q0 -23 -28 -40t-58 -17q-61 0 -62 125q0 74 5 227.5t5 235.5v41q-2 90 -26.5 295.5t-24.5 314.5z" />
<glyph unicode="&#x44f;" horiz-adv-x="1200" d="M82 59q0 16 10 33q37 61 156 194.5t170 168.5q33 31 77 66.5t75.5 59t93 69.5t88.5 67q-403 31 -404 299q0 162 150.5 291t310.5 129q145 0 154 -41q10 -106 10 -189q0 -2 -13.5 -187t-27.5 -390t-14 -244q0 -188 34 -328q4 -12 4 -14q0 -18 -21.5 -30.5t-39.5 -12.5 q-47 0 -57 37q-37 154 -37 336q0 121 12 243q-25 -18 -95.5 -68t-118.5 -86t-93 -73q-31 -25 -63.5 -56.5t-57.5 -57t-59.5 -66.5t-52 -62.5t-55.5 -68.5t-50 -64q-16 -23 -35 -22q-20 0 -35.5 21t-15.5 46zM440 997q0 -43 29 -73.5t65.5 -48t99 -28.5t101.5 -14.5t99 -7.5 q20 215 20 496q-147 0 -280.5 -99.5t-133.5 -224.5z" />
<glyph unicode="&#x450;" horiz-adv-x="1228" d="M29 1886q0 59 88 59q20 0 47 -24.5t58.5 -71.5t55 -85t56.5 -95t43 -74q4 -8 4 -10q0 -27 -59 -27q-37 0 -58 21q-18 23 -62 74t-66.5 78.5t-51 64.5t-42 58.5t-13.5 31.5zM246 1354q0 31 24.5 56.5t55.5 25.5q20 0 30 -9q98 -12 297 -18t301 -20q39 -8 39 -37 t-31.5 -56.5t-68.5 -27.5q-10 0 -14 2q-66 16 -143 21t-177 6t-151 6q41 -283 41 -474q16 8 77 9q182 0 336 -35q63 -12 64 -62q0 -18 -13.5 -32.5t-33.5 -14.5q-43 0 -135.5 12.5t-145.5 12.5q-74 0 -125 -12q-31 -6 -66.5 -206t-35.5 -372q55 6 177 23.5t218 26.5t182 9 q100 0 187 -14q53 -10 53 -55q0 -23 -15.5 -40.5t-39.5 -17.5q-29 0 -92.5 10.5t-100.5 10.5q-92 0 -294 -45t-314 -45q-33 0 -52.5 20.5t-19.5 55.5q0 20 6 69t6 74q0 90 31 260t37 244q0 217 -53 598q-41 2 -41 41z" />
<glyph unicode="&#x451;" horiz-adv-x="1153" d="M184 131q47 319 47 737q0 37 -4 111t-4 108q0 193 86 262.5t281 69.5q207 0 391 -43q23 -12 23 -49q0 -25 -11.5 -44t-29.5 -19q-66 0 -197 28.5t-199 28.5q-172 0 -254 -109v-426q39 0 139.5 4.5t153.5 4.5q184 0 185 -47q0 -25 -18.5 -48.5t-41.5 -23.5q-63 8 -147 8 q-51 0 -146.5 -4t-124.5 -4q-2 -23 -7 -208t-15 -288q170 -47 336 -47q66 0 193.5 25.5t154.5 25.5q25 0 40 -19.5t15 -45.5q0 -31 -26 -43q-203 -61 -424 -62q-209 0 -363 52q-33 10 -33 65zM262 1638q2 4 10.5 21.5t12.5 24t13 20.5t17.5 20.5t20.5 11.5t26.5 5 t24.5 -13.5t10 -29.5q0 -10 -2 -15q8 -4 34 -7t41 -11t15 -29q0 -23 -16 -44t-37 -21q-2 0 -29.5 4t-44 7t-40 10t-38 18.5t-18.5 27.5zM733 1714q0 25 37 36t72 11q41 0 82 -19.5t41 -58.5q0 -43 -45.5 -75.5t-92.5 -32.5q-51 0 -51 37q0 12 10.5 21t30 19.5t25.5 16.5 l-6 2q-4 4 -11.5 6t-9.5 2q-12 0 -20.5 -6t-10.5 -6q-16 0 -33.5 14.5t-17.5 32.5z" />
<glyph unicode="&#x452;" horiz-adv-x="1376" d="M41 1337q0 53 31 54q125 16 278 26v2q0 25 23.5 40.5t54.5 15.5q41 0 55 -50q139 4 211 5q162 0 162 -60q0 -43 -41 -43q-217 -8 -323 -14q-2 -78 -8.5 -227.5t-6.5 -176.5q18 6 60.5 17.5t54.5 15.5t39.5 10t41 8.5t35 4.5t42.5 2q207 0 324.5 -138.5t117.5 -437.5 q0 -172 -102.5 -318.5t-262.5 -146.5q-35 6 -34 51q0 53 30 54q80 0 136.5 70.5t78 154.5t21.5 162q0 217 -94.5 327.5t-227.5 110.5q-115 0 -262 -63q-6 -74 -6 -146q0 -61 5 -190t5 -201q0 -102 -8 -190q-10 -37 -61 -37q-39 0 -39 28q0 23 4 79.5t4 92.5q0 86 -9.5 198 t-9.5 202q0 76 5.5 231.5t5.5 235.5q0 115 -9 211q-100 -4 -286 -21q-35 6 -35 51z" />
<glyph unicode="&#x453;" horiz-adv-x="1148" d="M143 1270q0 33 26 65.5t60 32.5h45q0 31 27 53.5t61 22.5q70 0 70 -82q25 -10 188.5 -13t305 -16.5t141.5 -52.5q0 -33 -26.5 -66.5t-61.5 -33.5q-82 0 -168 5t-213 16t-172 16q2 -156 32.5 -473.5t30.5 -481.5q0 -92 -10 -209q-6 -29 -34.5 -45t-61.5 -16q-59 0 -59 37 q0 31 6 101.5t6 113.5q0 166 -33 491.5t-33 489.5q-29 2 -86 2q-41 0 -41 43zM569 1491q0 29 38 91.5t89 115.5q4 4 21.5 22.5t24 25.5t22.5 20.5t26.5 18.5t27 10t32.5 5q88 0 88 -59q0 -16 -33 -51t-108.5 -106t-114.5 -109q-20 -20 -57 -21q-56 0 -56 37z" />
<glyph unicode="&#x454;" horiz-adv-x="1165" d="M143 709q0 285 154 489.5t422 204.5q180 0 325 -76q39 -16 39 -55q0 -33 -30 -33q-41 0 -156 37t-172 37q-115 0 -201 -43t-135 -123t-76.5 -165t-42.5 -196q139 -20 246 -20q45 0 135 17.5t121 17.5q18 0 34.5 -18.5t16.5 -37.5q0 -23 -22 -30q-127 -43 -271 -43 q-111 0 -268 24q4 -123 29.5 -229.5t77 -198.5t141.5 -146t211 -54q49 0 90 8q68 0 68 -62q0 -27 -25 -32q-68 -10 -125 -11q-145 0 -261 65.5t-184.5 173t-104.5 236t-36 263.5z" />
<glyph unicode="&#x455;" horiz-adv-x="1310" d="M20 291q0 27 28 49t58 22q16 0 37 -10q125 -111 287 -178.5t326 -67.5q115 0 217 56.5t102 167.5q0 90 -57 160.5t-142 112.5t-185.5 90t-185.5 94.5t-142.5 127t-57.5 185.5q0 137 113.5 233.5t257.5 96.5q92 0 183 -47.5t91 -106.5q0 -25 -24.5 -43.5t-53.5 -18.5 q-33 0 -49 21q-68 88 -172 88q-88 0 -155.5 -58.5t-67.5 -144.5q0 -92 57.5 -163.5t144.5 -113.5t188.5 -90t188.5 -91.5t144 -116t57 -166.5q0 -180 -136 -279.5t-355 -99.5q-174 0 -354.5 70.5t-325.5 183.5q-17 17 -17 37z" />
<glyph unicode="&#x456;" horiz-adv-x="663" d="M143 1417q0 57 45 68q147 16 170 16q43 0 125 -16q37 -6 37 -55q0 -25 -12 -43.5t-35 -18.5q-61 12 -123 12q0 -137 23.5 -369.5t23.5 -371.5q0 -57 -6 -208.5t-6 -215.5q0 -74 31 -154q25 0 51.5 -14t26.5 -37q0 -12 -10.5 -23.5t-24.5 -11.5q-59 -12 -187 -12 q-27 0 -45 15.5t-18 41.5q0 14 16.5 26.5t32.5 12.5q20 0 33 -2q-18 49 -19 121q0 63 8.5 227t8.5 236q0 127 -20.5 354.5t-22.5 378.5l-66 -6q-37 0 -37 49z" />
<glyph unicode="&#x457;" horiz-adv-x="743" d="M82 1700q2 4 10 21.5t12.5 23.5t13.5 20.5t17 20.5t20.5 11t27 5t24.5 -13t10 -30q0 -10 -2 -14q8 -4 33.5 -7t41 -11.5t15.5 -28.5q0 -23 -16.5 -44.5t-36.5 -21.5q-2 0 -29.5 4t-44 7.5t-40 10.5t-38 18.5t-18.5 27.5zM205 1417q0 57 45 68q147 16 170 16q43 0 125 -16 q37 -6 37 -55q0 -25 -12.5 -43.5t-34.5 -18.5q-61 12 -123 12q0 -137 23.5 -369.5t23.5 -371.5q0 -57 -6.5 -208.5t-6.5 -215.5q0 -74 31 -154q25 0 51.5 -14t26.5 -37q0 -12 -10 -23.5t-25 -11.5q-59 -12 -186 -12q-27 0 -45.5 15.5t-18.5 41.5q0 14 16.5 26.5t32.5 12.5 q20 0 33 -2q-18 49 -18 121q0 63 8 227t8 236q0 127 -20.5 354.5t-22.5 378.5l-65 -6q-37 0 -37 49zM410 1776q0 25 36.5 36t71.5 11q41 0 82 -19.5t41 -58.5q0 -43 -45 -76t-92 -33q-51 0 -51 37q0 12 10 21.5t29.5 19.5t25.5 17l-6 2q-4 4 -11 6t-9 2q-12 0 -20.5 -6 t-10.5 -6q-16 0 -33.5 14.5t-17.5 32.5z" />
<glyph unicode="&#x458;" horiz-adv-x="1077" d="M82 424q0 31 51 31q72 0 72 -47q0 -117 80 -200t200 -83q61 0 104.5 41t64 107.5t29.5 127t9 119.5q0 80 -24.5 255t-24.5 276q0 160 16 249q-70 0 -137 -10q-41 0 -41 64q0 94 123 94q90 0 287 -35q18 0 30.5 -12t12.5 -31q0 -27 -17.5 -48.5t-44.5 -21.5q-20 16 -86 17 q-27 0 -34 -4q-18 -88 -19 -166q0 -115 42 -345.5t42 -352.5q0 -170 -107.5 -315.5t-269.5 -145.5q-150 0 -254 138t-104 298z" />
<glyph unicode="&#x459;" horiz-adv-x="1765" d="M0 -2q0 23 9 48.5t22 25.5q248 0 248 366q0 80 -1.5 137.5t-1.5 139.5q0 123 -5 362.5t-5 362.5q0 41 62 41q37 0 81 -15.5t85 -15.5q74 0 221 14.5t225 14.5q61 0 64 -45q10 -332 12 -615q74 20 153 21q109 0 224.5 -45t202.5 -140.5t87 -214.5q0 -143 -95 -249.5 t-227 -155.5t-274 -49q-31 0 -93 -1t-89 -1q-47 0 -73.5 19.5t-26.5 43.5q0 23 22.5 41t61.5 23q2 88 2 262q0 158 -4 474t-4 478q-20 2 -60 2q-59 0 -169.5 -15.5t-192.5 -15.5q-33 0 -51 -2q2 -74 9 -328.5t7 -400.5q0 -18 -4 -162q-8 -225 -112.5 -351t-274.5 -126 q-35 6 -35 72zM1006 90q27 -4 79 -4q98 0 207 34t196 110.5t87 177.5q0 150 -139.5 241.5t-307.5 91.5q-59 0 -110 -12q0 -385 -12 -639z" />
<glyph unicode="&#x45a;" horiz-adv-x="1622" d="M225 426q0 113 17.5 338t17.5 340q0 47 -12 143t-12 146q0 23 35.5 40t60.5 17q35 0 45 -47q23 -147 22 -281q0 -88 -12 -252q211 -23 432 -28q0 8 1 24.5t1 22.5q0 41 -6 122t-6 122q0 43 -6 129t-6 129q0 23 24.5 38t55.5 15q82 0 81 -86q0 -29 -5 -89.5t-5 -90.5 q0 -66 3 -189t3 -170q74 20 154 21q168 0 300 -109.5t132 -290.5q0 -215 -149.5 -334.5t-364.5 -119.5h-61q-4 -27 -30 -43.5t-54 -16.5q-47 0 -54 37q-6 23 -45 40t-39 44q0 45 64 59q-6 92 -6 185q0 68 14 454q-287 0 -436 27q-18 -203 -19 -336q0 -197 41 -346 q4 -16 5 -27q0 -31 -17.5 -54t-40.5 -23q-16 0 -41.5 9t-27.5 25q-54 177 -54 406zM942 245.5q0 -106.5 6 -159.5h76q152 0 280 86t128 236q0 156 -103.5 244.5t-261.5 88.5q-59 0 -111 -12q0 -66 -7 -221.5t-7 -262z" />
<glyph unicode="&#x45b;" horiz-adv-x="1355" d="M41 1337q0 53 31 54q125 16 278 26v2q0 25 23.5 40.5t54.5 15.5q41 0 55 -50q139 4 211 5q162 0 162 -60q0 -43 -41 -43q-217 -8 -323 -14q-2 -80 -8.5 -262.5t-6.5 -202.5q203 57 305 57q215 0 312.5 -117.5t97.5 -396.5q0 -209 -27 -321q-18 -78 -65 -78t-47 57 q0 55 3 195.5t3 249.5q0 170 -81 235.5t-220 65.5q-135 0 -283 -64q-6 -74 -6 -145q0 -61 5 -170t5 -180q0 -102 -8 -191q-10 -37 -61 -37q-39 0 -39 29q0 23 4 79t4 93q0 86 -9.5 208t-9.5 212q0 76 5.5 231.5t5.5 235.5q0 115 -9 211q-100 -4 -286 -21q-35 6 -35 51z" />
<glyph unicode="&#x45c;" horiz-adv-x="1239" d="M205 432q0 133 21.5 398.5t21.5 396.5q0 100 -8 198q0 47 53 48q29 0 50.5 -16.5t21.5 -41.5q14 -113 14 -237q0 -135 -12 -271q86 41 178 123t199.5 193.5t166.5 165.5q16 8 37 8q47 0 47 -51q0 -37 -28 -58q-59 -41 -121 -99.5t-131.5 -131t-110.5 -111.5 q49 -57 94 -117.5t90.5 -136.5t76 -128t77.5 -147t67.5 -136t73 -153t66.5 -140q8 -20 8 -37q0 -25 -23.5 -48.5t-50.5 -23.5q-25 0 -32 27q-27 55 -88.5 190t-99.5 212t-97 187.5t-122.5 201.5t-135.5 171q-66 -51 -150 -86q-16 -301 -16 -338q0 -201 39 -381 q0 -43 -62 -43q-29 0 -52 13.5t-27 38.5q-35 157 -35 360zM520 1470q0 29 38 91.5t89 115.5q4 4 21.5 22.5t23.5 26t22.5 20.5t27 18t26.5 10.5t33 5.5q88 0 88 -60q0 -16 -33 -51t-108.5 -105.5t-114.5 -109.5q-20 -20 -58 -20q-55 -1 -55 36z" />
<glyph unicode="&#x45d;" horiz-adv-x="1177" d="M574 1892q0 59 88 59q20 0 47 -24.5t58.5 -71.5t55 -85t56.5 -95t43 -74q4 -8 4 -10q0 -27 -59 -27q-37 0 -58 21q-18 23 -62 74t-66.5 78.5t-51 64.5t-42 58.5t-13.5 31.5zM225 1300q0 29 30 63t56.5 34t32.5 -39q51 -244 51 -500q0 -268 -26 -520q102 311 170 459 q170 313 221 475v74q0 23 43 59.5t67 36.5q57 0 57.5 -137.5t-18 -410.5t-18.5 -407q0 -162 30.5 -298t30.5 -146q0 -27 -25.5 -47.5t-56.5 -20.5q-125 0 -125 662q0 205 13 344q-195 -418 -236 -571q-12 -25 -38.5 -137.5t-65.5 -189.5t-99 -77q-78 0 -77 303 q39 328 39 537q-1 243 -56 454z" />
<glyph unicode="&#x45e;" horiz-adv-x="1138" d="M102 1343q0 29 25 56.5t47 27.5q14 0 23 -14q51 -100 70.5 -137t70.5 -125t88 -133t92 -107.5t115.5 -102.5t130.5 -69q94 326 94 662q0 29 22.5 49t49.5 20q39 0 45 -45q0 -381 -195 -972q-141 -426 -481 -494q-59 0 -59 43q0 25 17 47.5t42 26.5q74 14 134.5 49t97 73 t72.5 107.5t53.5 113.5t45.5 128l25 69q-111 45 -205 121t-171 177.5t-131 193.5t-114 215q-4 6 -4 20zM391 1542q0 27 13.5 47.5t35.5 20.5q27 6 89.5 13t102.5 16.5t48 29.5q6 12 12 12q12 0 23.5 -28.5t11.5 -61.5q0 -51 -51 -63q-190 -45 -246 -45q-39 0 -39 59z" />
<glyph unicode="&#x45f;" horiz-adv-x="1239" d="M205 84q27 215 26 504q0 129 -7 393t-7 395q0 35 37 35q31 0 58.5 -22.5t27.5 -55.5q0 -127 8 -384t8 -386q0 -221 -20 -424q283 0 532 -28q-2 131 -32.5 422.5t-30.5 445.5q0 244 53 424q6 35 64 35q72 0 71 -41q-55 -197 -55 -430q0 -158 31.5 -451t36.5 -420 q0 -2 -2 -6q31 -18 30 -65q0 -63 -55 -64q-98 12 -295 29q-2 -133 -25 -269q-10 -47 -71 -47q-55 0 -56 39q25 119 25 283q-135 6 -272 6q-33 0 -56.5 26.5t-23.5 55.5z" />
<glyph unicode="&#x490;" horiz-adv-x="1107" d="M123 1270q0 33 25.5 65.5t60.5 32.5h45q0 31 26.5 53.5t61.5 22.5q70 0 70 -82q20 -8 100 -12t195.5 -7.5t183.5 -9.5q0 31 -5 91.5t-5 88.5q0 37 59 37q33 0 61.5 -16t34.5 -45q10 -117 11 -209q0 -33 -27 -66.5t-62 -33.5q-82 0 -167.5 5t-212.5 16t-172 16 q2 -156 32.5 -473.5t30.5 -481.5q0 -92 -10 -209q-6 -29 -35 -45t-62 -16q-59 0 -59 37q0 31 6 101.5t6 113.5q0 166 -32.5 491.5t-32.5 489.5q-29 2 -86 2q-41 0 -41 43z" />
<glyph unicode="&#x491;" horiz-adv-x="1128" d="M123 1270q0 33 25.5 65.5t60.5 32.5h45q0 31 26.5 53.5t61.5 22.5q70 0 70 -82q20 -8 100 -12t195.5 -7.5t183.5 -9.5q0 31 -5 91.5t-5 88.5q0 37 59 37q33 0 61.5 -16t34.5 -45q10 -117 11 -209q0 -33 -27 -66.5t-62 -33.5q-82 0 -167.5 5t-212.5 16t-172 16 q2 -156 32.5 -473.5t30.5 -481.5q0 -92 -10 -209q-6 -29 -35 -45t-62 -16q-59 0 -59 37q0 31 6 101.5t6 113.5q0 166 -32.5 491.5t-32.5 489.5q-29 2 -86 2q-41 0 -41 43z" />
<glyph unicode="&#x4ae;" horiz-adv-x="1204" d="M61 1352q0 29 25 51t53 22q35 0 51 -26q113 -295 443 -549q244 330 424 524q18 18 43 19q18 0 30.5 -14.5t12.5 -32.5q0 -31 -31 -56q-121 -139 -397 -499q12 -12 12 -29q0 -20 -18.5 -42t-40.5 -28q6 -29 37.5 -155.5t43 -179t27 -147.5t19.5 -171q0 -25 -20.5 -39 t-49.5 -14t-49.5 14t-20.5 39q-4 82 -21.5 183.5t-29.5 161.5t-44 188t-40 165q0 16 6 25q-322 236 -460 569q-5 13 -5 21z" />
<glyph unicode="&#x4c0;" horiz-adv-x="745" d="M205 1417q0 57 45 68q147 16 170 16q43 0 125 -16q37 -6 37 -55q0 -25 -12.5 -43.5t-34.5 -18.5q-61 12 -123 12q0 -137 23.5 -369.5t23.5 -371.5q0 -57 -6.5 -208.5t-6.5 -215.5q0 -74 31 -154q25 0 51.5 -14t26.5 -37q0 -12 -10 -23.5t-25 -11.5q-59 -12 -186 -12 q-27 0 -45.5 15.5t-18.5 41.5q0 14 16.5 26.5t32.5 12.5q20 0 33 -2q-18 49 -18 121q0 63 8 227t8 236q0 127 -20.5 354.5t-22.5 378.5l-65 -6q-37 0 -37 49z" />
<glyph unicode="&#x2013;" horiz-adv-x="1169" d="M123 739q0 25 13.5 48.5t27.5 23.5q319 -27 440 -27q55 0 181 -14t206 -14q23 0 39.5 -23.5t16.5 -50.5q0 -25 -18.5 -40t-45.5 -15q-57 0 -192.5 15t-192.5 15q-80 0 -231.5 9.5t-216.5 11.5q-27 6 -27 61z" />
<glyph unicode="&#x2014;" horiz-adv-x="1392" d="M123 713q0 27 17.5 52.5t31.5 25.5q319 -27 528 -27q242 0 500 16q27 0 48.5 -27.5t21.5 -54.5q0 -57 -49 -57q-63 -4 -187 -4q-104 0 -829 12q-2 0 -9.5 -2t-11.5 -2q-31 0 -46 21.5t-15 46.5z" />
<glyph unicode="&#x2018;" horiz-adv-x="548" d="M102 1128q0 117 39 228.5t103 111.5q27 0 54.5 -19t27.5 -46q0 -20 -28 -47t-55.5 -67t-27.5 -91q0 -49 27.5 -82t83.5 -33q8 0 26.5 2t30.5 2q31 0 47 -18t16 -47q0 -49 -46 -83t-99 -34q-86 0 -142.5 65.5t-56.5 157.5z" />
<glyph unicode="&#x2019;" horiz-adv-x="548" d="M102 1284q0 49 46.5 83t99.5 34q88 0 143 -65.5t55 -157.5q0 -117 -38.5 -228.5t-102.5 -111.5q-27 0 -54.5 19.5t-27.5 45.5q0 20 28 48t55.5 67t27.5 90q0 49 -27.5 82t-83.5 33q-6 0 -24.5 -2t-32.5 -2q-31 0 -47.5 18t-16.5 47z" />
<glyph unicode="&#x201a;" horiz-adv-x="589" d="M102 121q0 45 56.5 81t103.5 36q100 0 162.5 -92.5t62.5 -198.5q0 -156 -141 -236q-37 -18 -55 -18q-20 0 -36.5 12t-16.5 33q0 31 22 43q86 57 86 166q0 74 -43 129q-53 -14 -100 -15q-101 1 -101 60z" />
<glyph unicode="&#x201c;" horiz-adv-x="948" d="M102 1128q0 117 39 228.5t103 111.5q27 0 54.5 -19t27.5 -46q0 -20 -28 -47t-55.5 -67t-27.5 -91q0 -49 27.5 -82t83.5 -33q8 0 26.5 2t30.5 2q31 0 47 -18t16 -47q0 -49 -46 -83t-99 -34q-86 0 -142.5 65.5t-56.5 157.5zM487 1188q0 80 57.5 165t137.5 85q25 0 41 -15.5 t16 -33.5q0 -14 -27.5 -41t-55 -69t-27.5 -91q0 -68 43 -131q66 16 102.5 16t54 -16.5t17.5 -57.5q0 -43 -37 -68.5t-90 -25.5q-104 0 -168 86t-64 197z" />
<glyph unicode="&#x201d;" horiz-adv-x="974" d="M102 1284q0 49 46.5 83t99.5 34q88 0 143 -65.5t55 -157.5q0 -117 -38.5 -228.5t-102.5 -111.5q-27 0 -54.5 19.5t-27.5 45.5q0 20 28 48t55.5 67t27.5 90q0 49 -27.5 82t-83.5 33q-6 0 -24.5 -2t-32.5 -2q-31 0 -47.5 18t-16.5 47zM514 1307q0 45 37 69.5t90 24.5 q104 0 167.5 -85t63.5 -196q0 -80 -56 -165t-136 -85q-27 0 -43 14.5t-16 35.5q0 14 27.5 40.5t55 68.5t27.5 91q0 70 -43 129q-53 -14 -102 -14q-37 0 -54.5 15.5t-17.5 56.5z" />
<glyph unicode="&#x201e;" horiz-adv-x="974" d="M102 117q0 49 46.5 82.5t99.5 33.5q88 0 143 -65.5t55 -157.5q0 -117 -38.5 -228.5t-102.5 -111.5q-27 0 -54.5 19.5t-27.5 46.5q0 20 28 48t55.5 66.5t27.5 90.5q0 49 -27.5 81.5t-83.5 32.5q-6 0 -24.5 -2t-32.5 -2q-31 0 -47.5 18.5t-16.5 47.5zM514 139q0 45 37 69.5 t90 24.5q104 0 167.5 -85t63.5 -195q0 -80 -56 -165t-136 -85q-27 0 -43 14.5t-16 34.5q0 14 27.5 41t55 69t27.5 91q0 70 -43 129q-53 -14 -102 -14q-37 0 -54.5 15t-17.5 56z" />
<glyph unicode="&#x2026;" horiz-adv-x="1411" d="M102 78q0 45 68 99t117 54q45 0 83 -42t38 -91q0 -80 -199 -80q-107 1 -107 60zM553 78q0 45 67.5 99t116.5 54q45 0 83 -42t38 -91q0 -80 -199 -80q-106 1 -106 60zM1004 78q0 45 67.5 99t116.5 54q45 0 83 -42t38 -91q0 -80 -199 -80q-106 1 -106 60z" />
<glyph unicode="&#x2039;" horiz-adv-x="1116" d="M143 727q0 66 74 102q84 59 180.5 111.5t228.5 117t197 99.5q8 8 17 8q18 0 34.5 -41t16.5 -67q0 -20 -17 -33q-63 -31 -194 -87t-221 -103.5t-183 -114.5q94 -96 288 -206t280 -177q20 -14 20 -47q0 -25 -8 -66t-20 -41q-8 0 -25 13q-49 35 -143.5 99t-151.5 104 t-139 99.5t-152 116.5l-21 22q-17 17 -26.5 27.5t-20 28t-14.5 35.5z" />
<glyph unicode="&#x203a;" horiz-adv-x="1114" d="M225 367q0 23 17 32q68 33 196.5 87.5t223 103.5t180.5 115q-98 94 -294 218t-274 185q-23 14 -22 47q0 23 8 54.5t21 31.5q10 0 24 -10q66 -47 182.5 -128t216 -151.5t187.5 -142.5q4 -4 15.5 -14.5t16.5 -16.5t14 -17t15 -19.5t11.5 -20.5t7.5 -25q0 -66 -72 -102 q-84 -57 -180 -110.5t-229.5 -118t-196.5 -99.5q-10 -6 -17 -6q-18 0 -34.5 40t-16.5 67z" />
<glyph unicode="&#x20ac;" horiz-adv-x="1198" d="M0 543q0 53 31 53l143 16q-2 20 -2 62v51l-96 -8q-35 6 -35 51q0 53 31 53l108 13q12 121 45 223t91.5 194t156.5 144.5t227 52.5q74 0 162 -41t88 -109q0 -25 -12 -42t-29 -17q-10 0 -32.5 21.5t-60.5 42t-87 20.5q-369 0 -446 -481q250 18 493 18q162 0 162 -59 q0 -43 -41 -43q-16 0 -260 -9.5t-369 -17.5q-4 -66 -4 -98v-12q180 14 389 14q162 0 162 -60q0 -43 -41 -43q-53 -2 -223 -9t-262 -13q59 -170 224 -270.5t366 -100.5q39 0 114.5 20.5t110.5 20.5q23 0 38 -21.5t15 -45.5q0 -39 -33 -52q-113 -53 -239 -53 q-233 0 -431 138.5t-259 357.5l-160 -12q-35 6 -35 51z" />
<glyph unicode="&#x2122;" horiz-adv-x="1886" d="M82 1362q0 53 55 61q49 12 103 13q55 0 164.5 -11.5t164.5 -11.5q49 0 107 10q39 0 39 -59q0 -12 -13.5 -25.5t-37.5 -17.5q-66 -10 -99 -10q-23 0 -41 2t-39 4l-41 4q0 -72 10.5 -212t10.5 -232q0 -109 -12 -183q-6 -25 -60 -24q-51 0 -51 24q14 59 14 156 q0 86 -10 240.5t-10 238.5q-61 4 -100 4q-53 0 -105 -12q-25 0 -37 14.5t-12 26.5zM760 768q0 90 53 279.5t53 279.5q0 31 -12 80q0 14 34 25.5t54 11.5q27 0 27 -27q74 -72 127 -170t106 -222t94 -196q4 76 17.5 160t38 190.5t69.5 174t103 67.5q49 0 83.5 -140 t72.5 -325.5t83 -253.5q0 -14 -30.5 -22t-53.5 -8q-35 0 -43 26q-121 428 -145 580q-2 -14 -25.5 -81t-31.5 -114q-8 -53 -20.5 -162.5t-22.5 -162.5q0 -16 -36 -29.5t-59 -13.5q-63 0 -69 14q-61 84 -127 273.5t-142 279.5q0 -119 -36 -250q-6 -18 -19.5 -62t-19.5 -65.5 t-12.5 -57.5t-6.5 -69q0 -10 4 -33.5t4 -37.5q0 -18 -17 -31.5t-36 -13.5q-27 0 -43 36.5t-16 69.5z" />
<glyph unicode="&#xe000;" horiz-adv-x="1395" d="M0 1395h1395v-1395h-1395v1395z" />
</font>
</defs>
</svg>
